<?xml version="1.0" encoding="utf-8"?>
<!-- Generator: Adobe Illustrator 25.2.3, SVG Export Plug-In . SVG Version: 6.00 Build 0)  -->
<svg version="1.1" id="Camada_1" xmlns="http://www.w3.org/2000/svg" xmlns:xlink="http://www.w3.org/1999/xlink" x="0px" y="0px"
	 viewBox="0 0 32 32" style="enable-background:new 0 0 32 32;" xml:space="preserve">
<style type="text/css">
	.st0{fill:#F7EF89;}
	.st1{fill:#124078;}
</style>
<circle class="st0" cx="17.3" cy="16.1" r="14.4"/>
<path class="st1" d="M10.1,14c-0.3,0.4-0.6,0.9-0.6,1.5l-5.3,0c-0.4,0-0.7,0.3-0.7,0.7v0.6c0,0.5,0.2,1.1,0.5,1.5
	c1.2,1.4,3,2.1,5.5,2.2c0,0.6,0.3,1.1,0.6,1.5L10,22c-3.1,0-5.5-0.9-7.1-2.7C2.3,18.6,2,17.7,2,16.8v-0.6c0-1.2,0.9-2.2,2.1-2.2
	l0.2,0L10.1,14z M14.7,11.5h3c0.6,0,1.2,0.5,1.2,1.1l0,0.1l0,1.2l1.3,0c1,0,1.8,0.8,1.8,1.8v4.5c0,1-0.8,1.8-1.8,1.8h-8
	c-1,0-1.8-0.8-1.8-1.8v-4.5c0-1,0.8-1.8,1.8-1.8l1.2,0l0-1.2c0-0.6,0.5-1.2,1.1-1.2L14.7,11.5h3H14.7z M20.2,15.5h-8
	c-0.1,0-0.2,0.1-0.2,0.2v4.5c0,0.1,0.1,0.2,0.2,0.2h8c0.1,0,0.2-0.1,0.2-0.2v-4.5C20.5,15.6,20.4,15.5,20.2,15.5z M17.5,13H15l0,1
	h2.5L17.5,13z M10,2c2.8,0,5,2.2,5,5s-2.2,5-5,5c-2.8,0-5-2.2-5-5S7.2,2,10,2z M10,3.5C8.1,3.5,6.5,5.1,6.5,7s1.6,3.5,3.5,3.5
	c1.9,0,3.5-1.6,3.5-3.5S11.9,3.5,10,3.5z"/>
</svg>
