<?xml version="1.0" encoding="utf-8"?>
<!-- Generator: Adobe Illustrator 25.2.3, SVG Export Plug-In . SVG Version: 6.00 Build 0)  -->
<svg version="1.1" id="Camada_1" xmlns="http://www.w3.org/2000/svg" xmlns:xlink="http://www.w3.org/1999/xlink" x="0px" y="0px"
	 viewBox="0 0 32 32" style="enable-background:new 0 0 32 32;" xml:space="preserve">
<style type="text/css">
	.st0{fill:#B4E1F9;}
	.st1{fill:#124078;}
</style>
<circle class="st0" cx="17.3" cy="16.1" r="14.4"/>
<path class="st1" d="M5.8,3C4.2,3,3,4.2,3,5.8v12.5C3,19.8,4.2,21,5.8,21H12c-0.3-0.5-0.5-1-0.7-1.5H5.8c-0.7,0-1.2-0.6-1.2-1.2V5.8
	c0-0.7,0.6-1.2,1.2-1.2h12.5c0.7,0,1.2,0.6,1.2,1.2v5.6c0.5,0.2,1,0.4,1.5,0.7V5.8C21,4.2,19.8,3,18.2,3H5.8z"/>
<path class="st1" d="M18,11c0-0.1,0-0.2,0-0.3c0-0.4-0.3-0.8-0.8-0.8h-5c-0.4,0-0.8,0.3-0.8,0.8c0,0.4,0.3,0.8,0.8,0.8H15
	c0.8-0.3,1.6-0.5,2.5-0.5C17.7,11,17.8,11,18,11z"/>
<path class="st1" d="M8.2,8.5C7,8.5,6,9.5,6,10.8C6,12,7,13,8.2,13s2.2-1,2.2-2.2C10.5,9.5,9.5,8.5,8.2,8.5z M7.5,10.8
	c0-0.4,0.3-0.8,0.8-0.8C8.7,10,9,10.3,9,10.8c0,0.4-0.3,0.8-0.8,0.8C7.8,11.5,7.5,11.2,7.5,10.8z"/>
<path class="st1" d="M6,16.2C6,15,7,14,8.2,14s2.2,1,2.2,2.2s-1,2.2-2.2,2.2S6,17.5,6,16.2z M8.2,15.5c-0.4,0-0.8,0.3-0.8,0.8
	S7.8,17,8.2,17C8.7,17,9,16.7,9,16.2S8.7,15.5,8.2,15.5z"/>
<path class="st1" d="M17.3,7.5l-10.5,0C6.3,7.5,6,7.2,6,6.8C6,6.3,6.3,6,6.8,6l10.5,0C17.7,6,18,6.3,18,6.8
	C18,7.2,17.7,7.5,17.3,7.5z"/>
<path class="st1" d="M23,17.5c0-3-2.5-5.5-5.5-5.5S12,14.5,12,17.5s2.5,5.5,5.5,5.5S23,20.5,23,17.5z M18,20.5
	c0,0.3-0.2,0.5-0.5,0.5c-0.3,0-0.5-0.2-0.5-0.5l0-2.5h-2.5c-0.3,0-0.5-0.2-0.5-0.5c0-0.3,0.2-0.5,0.5-0.5H17l0-2.5
	c0-0.3,0.2-0.5,0.5-0.5s0.5,0.2,0.5,0.5l0,2.5h2.5c0.3,0,0.5,0.2,0.5,0.5c0,0.3-0.2,0.5-0.5,0.5H18L18,20.5z"/>
</svg>
