<?xml version="1.0" encoding="utf-8"?>
<!-- Generator: Adobe Illustrator 25.2.3, SVG Export Plug-In . SVG Version: 6.00 Build 0)  -->
<svg version="1.1" id="Camada_1" xmlns="http://www.w3.org/2000/svg" xmlns:xlink="http://www.w3.org/1999/xlink" x="0px" y="0px"
	 viewBox="0 0 32 32" style="enable-background:new 0 0 32 32;" xml:space="preserve">
<style type="text/css">
	.st0{fill:#B4E1F9;}
	.st1{fill:#124078;}
</style>
<circle class="st0" cx="17.3" cy="16.1" r="14.4"/>
<path class="st1" d="M12.8,13L4,13c-1.1,0-2,0.9-2,2v1.5l0,0.2C2.2,20,5.8,21,8.5,21c1,0,2.2-0.1,3.2-0.5c-0.2-0.4-0.4-0.9-0.5-1.4
	c-0.7,0.2-1.5,0.4-2.4,0.4l-0.3,0l-0.3,0c-1.3,0-2.4-0.3-3.3-0.8c-1-0.5-1.4-1.2-1.4-2.2V15l0-0.1c0-0.1,0.1-0.2,0.1-0.3
	c0,0,0.1-0.1,0.3-0.1l0.1,0l7.7,0C12,13.9,12.4,13.4,12.8,13z M13,6.5C13,4,11,2,8.5,2S4,4,4,6.5S6,11,8.5,11S13,9,13,6.5z M5.5,6.5
	c0-1.7,1.3-3,3-3s3,1.3,3,3s-1.3,3-3,3S5.5,8.2,5.5,6.5z M21,7.5C21,5.6,19.4,4,17.5,4S14,5.6,14,7.5s1.6,3.5,3.5,3.5S21,9.4,21,7.5
	z M15.5,7.5c0-1.1,0.9-2,2-2s2,0.9,2,2s-0.9,2-2,2S15.5,8.6,15.5,7.5z M16.1,12.9l-0.5-0.5c-0.5,0.2-1,0.5-1.5,0.9l0.2,0.7
	c0.3,1.1-0.3,2.2-1.4,2.5l-0.6,0.1c0,0.3-0.1,0.6-0.1,0.9c0,0.3,0,0.6,0.1,0.9l0.5,0.1c1.1,0.3,1.8,1.4,1.5,2.5l-0.2,0.6
	c0.4,0.4,0.9,0.7,1.5,0.9l0.5-0.5c0.8-0.8,2.1-0.8,2.9,0l0.5,0.5c0.5-0.2,1-0.5,1.5-0.9L20.7,21c-0.3-1.1,0.3-2.2,1.4-2.5l0.6-0.1
	c0-0.3,0.1-0.6,0.1-0.9c0-0.3,0-0.6-0.1-0.9l-0.5-0.1c-1.1-0.3-1.8-1.4-1.5-2.5l0.2-0.6c-0.4-0.4-0.9-0.7-1.5-0.9L19,12.9
	C18.2,13.7,16.9,13.7,16.1,12.9z M16.1,17.5c0-0.8,0.6-1.5,1.4-1.5s1.4,0.7,1.4,1.5S18.3,19,17.5,19S16.1,18.3,16.1,17.5z"/>
</svg>
