<?xml version="1.0" encoding="utf-8"?>
<!-- Generator: Adobe Illustrator 25.2.3, SVG Export Plug-In . SVG Version: 6.00 Build 0)  -->
<svg version="1.1" id="Camada_1" xmlns="http://www.w3.org/2000/svg" xmlns:xlink="http://www.w3.org/1999/xlink" x="0px" y="0px"
	 viewBox="0 0 32 32" style="enable-background:new 0 0 32 32;" xml:space="preserve">
<style type="text/css">
	.st0{fill:#96EAC8;}
	.st1{fill:#124078;}
</style>
<circle class="st0" cx="17.3" cy="16.1" r="14.4"/>
<path class="st1" d="M3,6.2C3,4.5,4.5,3,6.2,3h11.5C19.5,3,21,4.5,21,6.2V12c-0.5-0.3-1-0.5-1.5-0.7V10h-4v1.3
	c-0.5,0.2-1,0.4-1.5,0.7v-2h-4v4h2c-0.3,0.5-0.5,1-0.7,1.5H10v4h1.3c0.2,0.5,0.4,1,0.7,1.5H6.2C4.5,21,3,19.5,3,17.8V6.2z M6.2,4.5
	c-1,0-1.8,0.8-1.8,1.8v2.2h4v-4H6.2z M4.5,10v4h4v-4H4.5z M15.5,8.5h4V6.2c0-1-0.8-1.8-1.8-1.8h-2.2V8.5z M14,4.5h-4v4h4V4.5z
	 M4.5,15.5v2.2c0,1,0.8,1.8,1.8,1.8h2.2v-4H4.5z"/>
<path class="st1" d="M23,17.5c0-3-2.5-5.5-5.5-5.5S12,14.5,12,17.5s2.5,5.5,5.5,5.5S23,20.5,23,17.5z M18,18l0,2.5
	c0,0.3-0.2,0.5-0.5,0.5c-0.3,0-0.5-0.2-0.5-0.5l0-2.5h-2.5c-0.3,0-0.5-0.2-0.5-0.5c0-0.3,0.2-0.5,0.5-0.5H17l0-2.5
	c0-0.3,0.2-0.5,0.5-0.5s0.5,0.2,0.5,0.5l0,2.5h2.5c0.3,0,0.5,0.2,0.5,0.5c0,0.3-0.2,0.5-0.5,0.5H18z"/>
</svg>
