<?xml version="1.0" encoding="utf-8"?>
<!-- Generator: Adobe Illustrator 25.2.3, SVG Export Plug-In . SVG Version: 6.00 Build 0)  -->
<svg version="1.1" id="Camada_1" xmlns="http://www.w3.org/2000/svg" xmlns:xlink="http://www.w3.org/1999/xlink" x="0px" y="0px"
	 viewBox="0 0 32 32" style="enable-background:new 0 0 32 32;" xml:space="preserve">
<style type="text/css">
	.st0{fill:#B4E1F9;}
	.st1{fill:#124078;}
</style>
<circle class="st0" cx="17.3" cy="16.1" r="14.4"/>
<path class="st1" d="M8.2,4c0.5,0,0.9,0.1,1.3,0.4l0.2,0.1l2.4,2h7.7c1.1,0,2.1,0.8,2.2,1.9l0,0.2l0,0.2v9c0,1.2-0.9,2.2-2.1,2.2
	l-0.2,0H4.2c-1.2,0-2.2-0.9-2.2-2.1l0-0.2V6.2C2,5.1,2.9,4.1,4.1,4l0.2,0H8.2z M9.6,10c-0.4,0.3-0.8,0.5-1.2,0.5l-0.2,0l-4.7,0v7.3
	c0,0.4,0.3,0.7,0.6,0.7l0.1,0h15.5c0.4,0,0.7-0.3,0.7-0.6l0-0.1v-9c0-0.4-0.3-0.7-0.6-0.7l-0.1,0H12L9.6,10z M8.2,5.5h-4
	c-0.4,0-0.7,0.3-0.7,0.6l0,0.1V9l4.7,0c0.1,0,0.3,0,0.4-0.1l0.1-0.1l1.9-1.6L8.7,5.7C8.6,5.6,8.4,5.5,8.3,5.5L8.2,5.5z"/>
</svg>
