<?xml version="1.0" encoding="utf-8"?>
<!-- Generator: Adobe Illustrator 25.2.3, SVG Export Plug-In . SVG Version: 6.00 Build 0)  -->
<svg version="1.1" id="Camada_1" xmlns="http://www.w3.org/2000/svg" xmlns:xlink="http://www.w3.org/1999/xlink" x="0px" y="0px"
	 viewBox="0 0 32 32" style="enable-background:new 0 0 32 32;" xml:space="preserve">
<style type="text/css">
	.st0{fill:#B4E1F9;}
	.st1{fill:#124078;}
</style>
<circle class="st0" cx="17.3" cy="16.1" r="14.4"/>
<path class="st1" d="M12,22.5c5.8,0,10.5-4.7,10.5-10.5c0-5.8-4.7-10.5-10.5-10.5C6.2,1.5,1.5,6.2,1.5,12C1.5,17.8,6.2,22.5,12,22.5
	z M12,3c0.8,0,1.7,0.7,2.5,2.4C14.8,6,15,6.7,15.2,7.5H8.8C9,6.7,9.2,6,9.5,5.4C10.3,3.7,11.2,3,12,3z M8.1,4.8
	C7.8,5.6,7.5,6.5,7.2,7.5h-3c1-1.8,2.7-3.2,4.6-3.9C8.6,4,8.3,4.4,8.1,4.8z M7,9c-0.1,1-0.2,2-0.2,3s0.1,2,0.2,3H3.5
	C3.2,14.1,3,13.1,3,12s0.2-2.1,0.5-3H7z M7.2,16.5c0.2,1,0.5,1.9,0.9,2.7c0.2,0.4,0.4,0.8,0.7,1.2c-1.9-0.7-3.6-2.1-4.6-3.9H7.2z
	 M8.8,16.5h6.4c-0.2,0.8-0.4,1.5-0.7,2.1C13.7,20.3,12.8,21,12,21s-1.7-0.7-2.5-2.4C9.2,18,9,17.3,8.8,16.5z M15.5,15h-7
	c-0.1-0.9-0.2-1.9-0.2-3s0.1-2.1,0.2-3h7c0.1,0.9,0.2,1.9,0.2,3S15.7,14.1,15.5,15z M16.8,16.5h3c-1,1.8-2.7,3.2-4.6,3.9
	c0.2-0.4,0.5-0.8,0.7-1.2C16.2,18.4,16.5,17.5,16.8,16.5z M20.5,15H17c0.1-1,0.2-2,0.2-3s-0.1-2-0.2-3h3.4c0.3,0.9,0.5,1.9,0.5,3
	S20.8,14.1,20.5,15z M15.2,3.6c1.9,0.7,3.6,2.1,4.6,3.9h-3c-0.2-1-0.5-1.9-0.9-2.7C15.7,4.4,15.4,4,15.2,3.6z"/>
</svg>
