<?xml version="1.0" encoding="utf-8"?>
<!-- Generator: Adobe Illustrator 25.2.3, SVG Export Plug-In . SVG Version: 6.00 Build 0)  -->
<svg version="1.1" id="Camada_1" xmlns="http://www.w3.org/2000/svg" xmlns:xlink="http://www.w3.org/1999/xlink" x="0px" y="0px"
	 viewBox="0 0 32 32" style="enable-background:new 0 0 32 32;" xml:space="preserve">
<style type="text/css">
	.st0{fill:#F7EF89;}
	.st1{fill:#124078;}
</style>
<circle class="st0" cx="17.3" cy="16.1" r="14.4"/>
<path class="st1" d="M18.2,3C19.8,3,21,4.2,21,5.7v12.5c0,1.5-1.2,2.8-2.8,2.8H5.8C4.2,21,3,19.8,3,18.2V5.7C3,4.2,4.2,3,5.8,3H18.2
	z M18.2,4.5H5.8c-0.7,0-1.2,0.6-1.2,1.2v12.5c0,0.7,0.6,1.2,1.2,1.2h12.5c0.7,0,1.2-0.6,1.2-1.2V5.7C19.5,5.1,18.9,4.5,18.2,4.5z
	 M7.8,9c0.4,0,0.7,0.3,0.7,0.6l0,0.1v6.5c0,0.4-0.3,0.7-0.8,0.7c-0.4,0-0.7-0.3-0.7-0.6l0-0.1V9.7C7,9.3,7.3,9,7.8,9z M16.2,7
	c0.4,0,0.7,0.3,0.7,0.6l0,0.1v8.5c0,0.4-0.3,0.7-0.8,0.7c-0.4,0-0.7-0.3-0.7-0.6l0-0.1V7.7C15.5,7.3,15.8,7,16.2,7z M12,12
	c0.4,0,0.7,0.3,0.7,0.6l0,0.1l0,3.5c0,0.4-0.3,0.7-0.7,0.7c-0.4,0-0.7-0.3-0.7-0.6l0-0.1l0-3.5C11.2,12.3,11.6,12,12,12z"/>
</svg>
