<?xml version="1.0" encoding="utf-8"?>
<!-- Generator: Adobe Illustrator 25.2.3, SVG Export Plug-In . SVG Version: 6.00 Build 0)  -->
<svg version="1.1" id="Camada_1" xmlns="http://www.w3.org/2000/svg" xmlns:xlink="http://www.w3.org/1999/xlink" x="0px" y="0px"
	 viewBox="0 0 32 32" style="enable-background:new 0 0 32 32;" xml:space="preserve">
<style type="text/css">
	.st0{fill:#B4E1F9;}
	.st1{fill:#124078;}
</style>
<circle class="st0" cx="17.3" cy="16.1" r="14.4"/>
<path class="st1" d="M6.8,2.7c0.3,0.3,0.3,0.8,0,1.1L4.6,6h8.7c4.3,0,7.8,3.5,7.8,7.8c0,4.3-3.5,7.8-7.8,7.8c-4.3,0-7.8-3.5-7.8-7.8
	c0-0.4,0.3-0.8,0.8-0.8S7,13.3,7,13.8c0,3.5,2.8,6.2,6.2,6.2c3.5,0,6.2-2.8,6.2-6.2s-2.8-6.2-6.2-6.2H4.6l2.2,2.2
	c0.3,0.3,0.3,0.8,0,1.1c-0.3,0.3-0.8,0.3-1.1,0L2.2,7.3C1.9,7,1.9,6.5,2.2,6.2l3.5-3.5C6,2.4,6.5,2.4,6.8,2.7z"/>
</svg>
