<?xml version="1.0" encoding="utf-8"?>
<!-- Generator: Adobe Illustrator 25.2.3, SVG Export Plug-In . SVG Version: 6.00 Build 0)  -->
<svg version="1.1" id="Camada_1" xmlns="http://www.w3.org/2000/svg" xmlns:xlink="http://www.w3.org/1999/xlink" x="0px" y="0px"
	 viewBox="0 0 32 32" style="enable-background:new 0 0 32 32;" xml:space="preserve">
<style type="text/css">
	.st0{fill:#F7EF89;}
	.st1{fill:#124078;}
</style>
<circle class="st0" cx="17.3" cy="16.1" r="14.4"/>
<path class="st1" d="M3.7,3h1.7C6.3,3,7,3.7,7.1,4.6l0,0.1V20c0,0.9-0.7,1.6-1.6,1.7l-0.1,0H3.7c-0.9,0-1.6-0.7-1.7-1.6L2,20V4.7
	C2,3.8,2.7,3.1,3.6,3L3.7,3h1.7H3.7z M9.7,3h1.7C12.2,3,13,3.7,13,4.6l0,0.1V20c0,0.9-0.7,1.6-1.6,1.7l-0.1,0H9.7
	C8.8,21.7,8,21,8,20.1L8,20V4.7C8,3.8,8.6,3.1,9.5,3L9.7,3h1.7H9.7z M17.4,4.7c0.7,0,1.4,0.5,1.6,1.2l0,0.1l3.3,13.2
	c0.2,0.9-0.3,1.8-1.1,2l-0.1,0l-1.7,0.4c-0.1,0-0.3,0.1-0.4,0.1c-0.7,0-1.4-0.5-1.6-1.2l0-0.1L14.1,7.3c-0.2-0.9,0.3-1.8,1.1-2
	l0.1,0L17,4.8C17.1,4.7,17.3,4.7,17.4,4.7z M5.4,4.3H3.7c-0.2,0-0.4,0.2-0.4,0.3l0,0.1V20c0,0.2,0.2,0.4,0.3,0.4l0.1,0h1.7
	c0.2,0,0.4-0.2,0.4-0.3l0-0.1V4.7C5.8,4.5,5.7,4.3,5.4,4.3L5.4,4.3z M11.3,4.3H9.7c-0.2,0-0.4,0.2-0.4,0.3l0,0.1V20
	c0,0.2,0.2,0.4,0.3,0.4l0.1,0h1.7c0.2,0,0.4-0.2,0.4-0.3l0-0.1V4.7C11.8,4.5,11.6,4.3,11.3,4.3L11.3,4.3z M17.4,6L17.4,6l-0.1,0
	l-1.7,0.4c-0.2,0.1-0.3,0.2-0.3,0.4l0,0.1l3.3,13.2c0.1,0.2,0.3,0.3,0.4,0.3l0.1,0l0.1,0l1.7-0.4c0.2-0.1,0.3-0.2,0.3-0.4l0-0.1
	L17.8,6.3C17.8,6.1,17.6,6,17.4,6z"/>
</svg>
