<?xml version="1.0" encoding="utf-8"?>
<!-- Generator: Adobe Illustrator 25.2.3, SVG Export Plug-In . SVG Version: 6.00 Build 0)  -->
<svg version="1.2" baseProfile="tiny" id="Camada_1"
	 xmlns="http://www.w3.org/2000/svg" xmlns:xlink="http://www.w3.org/1999/xlink" x="0px" y="0px" viewBox="0 0 32 32"
	 overflow="visible" xml:space="preserve">
<circle fill="#F7EF89" cx="17.3" cy="16.1" r="14.4"/>
<path fill="#124078" d="M10.8,2.4C8.1,2.4,6,4.5,6,7.2S8.1,12,10.8,12c2.7,0,4.8-2.1,4.8-4.8S13.5,2.4,10.8,2.4z M7.2,7.2
	c0-2,1.6-3.6,3.6-3.6c2,0,3.6,1.6,3.6,3.6s-1.6,3.6-3.6,3.6C8.8,10.8,7.2,9.2,7.2,7.2z M4.8,13.2c-1.3,0-2.4,1.1-2.4,2.4
	c0,2,1,3.6,2.6,4.6c1.5,1,3.6,1.4,5.8,1.4c0.5,0,1,0,1.5-0.1c-0.3-0.4-0.5-0.7-0.7-1.1c-0.2,0-0.5,0-0.7,0c-2.1,0-3.9-0.4-5.2-1.3
	c-1.3-0.8-2-2-2-3.5c0-0.7,0.5-1.2,1.2-1.2h6.7c0.2-0.4,0.5-0.8,0.8-1.2H4.8z M16.7,15c0-0.4,0.3-0.8,0.8-0.8c0.4,0,0.8,0.3,0.8,0.8
	c0,0.4-0.3,0.8-0.8,0.8C17,15.8,16.7,15.4,16.7,15z M18,19.8c0,0.3-0.3,0.6-0.6,0.6c-0.3,0-0.6-0.3-0.6-0.6v-2.4
	c0-0.3,0.3-0.6,0.6-0.6c0.3,0,0.6,0.3,0.6,0.6V19.8z M12,17.4c0-3,2.4-5.4,5.4-5.4s5.4,2.4,5.4,5.4s-2.4,5.4-5.4,5.4
	S12,20.4,12,17.4z M13.2,17.4c0,2.3,1.9,4.2,4.2,4.2s4.2-1.9,4.2-4.2s-1.9-4.2-4.2-4.2S13.2,15.1,13.2,17.4z"/>
</svg>
