<?xml version="1.0" encoding="utf-8"?>
<!-- Generator: Adobe Illustrator 25.2.3, SVG Export Plug-In . SVG Version: 6.00 Build 0)  -->
<svg version="1.1" id="Camada_1" xmlns="http://www.w3.org/2000/svg" xmlns:xlink="http://www.w3.org/1999/xlink" x="0px" y="0px"
	 viewBox="0 0 32 32" style="enable-background:new 0 0 32 32;" xml:space="preserve">
<style type="text/css">
	.st0{fill:#F7EF89;}
	.st1{fill:#124078;}
</style>
<circle class="st0" cx="17.3" cy="16.1" r="14.4"/>
<path class="st1" d="M17.8,14c0.8,0,1.5,0.4,1.9,1h-6.1c-0.6,0-1.1,0.2-1.5,0.5H6.3c-0.4,0-0.7,0.3-0.7,0.7v0.6
	c0,0.5,0.2,1.1,0.5,1.5c1.1,1.3,2.7,2,5,2.2v1c0,0.2,0,0.3,0,0.5c-2.7-0.2-4.7-1.1-6.1-2.7C4.3,18.6,4,17.7,4,16.8v-0.6
	C4,15,5,14,6.3,14H17.8z M12,2c2.8,0,5,2.2,5,5c0,2.8-2.2,5-5,5c-2.8,0-5-2.2-5-5C7,4.2,9.2,2,12,2z M12,3.5c-1.9,0-3.5,1.6-3.5,3.5
	c0,1.9,1.6,3.5,3.5,3.5s3.5-1.6,3.5-3.5C15.5,5.1,13.9,3.5,12,3.5z M12,17.5c0-0.8,0.7-1.5,1.5-1.5h8c0.8,0,1.5,0.7,1.5,1.5v4
	c0,0.8-0.7,1.5-1.5,1.5h-8c-0.8,0-1.5-0.7-1.5-1.5V17.5z M22,18c-0.6,0-1-0.4-1-1h-1c0,1.1,0.9,2,2,2V18z M22,20c-1.1,0-2,0.9-2,2h1
	c0-0.6,0.4-1,1-1V20z M14,17c0,0.6-0.4,1-1,1v1c1.1,0,2-0.9,2-2H14z M15,22c0-1.1-0.9-2-2-2v1c0.6,0,1,0.4,1,1H15z M19.3,19.5
	c0-1-0.8-1.8-1.8-1.8s-1.8,0.8-1.8,1.8s0.8,1.8,1.8,1.8S19.3,20.5,19.3,19.5z"/>
</svg>
