<?xml version="1.0" encoding="utf-8"?>
<!-- Generator: Adobe Illustrator 25.2.3, SVG Export Plug-In . SVG Version: 6.00 Build 0)  -->
<svg version="1.1" id="Camada_1" xmlns="http://www.w3.org/2000/svg" xmlns:xlink="http://www.w3.org/1999/xlink" x="0px" y="0px"
	 viewBox="0 0 32 32" style="enable-background:new 0 0 32 32;" xml:space="preserve">
<style type="text/css">
	.st0{fill:#B4E1F9;}
	.st1{fill:#124078;}
</style>
<circle class="st0" cx="17.3" cy="16.1" r="14.4"/>
<path class="st1" d="M17.8,3l0.2,0c1.6,0.1,3,1.4,3.1,3.1l0,0.2V12c-0.5-0.3-1-0.5-1.5-0.7l0-3.3h-15l0,9.8c0,0.9,0.7,1.7,1.6,1.7
	l0.1,0h5.1c0.2,0.5,0.4,1,0.7,1.5H6.2c-1.7,0-3.1-1.4-3.2-3.1l0-0.2V6.2C3,4.5,4.4,3.1,6.1,3l0.2,0H17.8z M17.8,4.5H6.3
	c-1,0-1.8,0.8-1.8,1.8v0.2h15V6.2C19.5,5.3,18.7,4.5,17.8,4.5z M10.2,9.5c0.4,0,0.7,0.3,0.7,0.6l0,0.1v7c0,0.4-0.3,0.7-0.6,0.7
	l-0.1,0H6.8c-0.4,0-0.7-0.3-0.7-0.6l0-0.1v-7c0-0.4,0.3-0.7,0.6-0.7l0.1,0H10.2z M9.5,11h-2v5.5h2V11z M18,10.2
	c0-0.4-0.3-0.8-0.8-0.8h-4.5l-0.1,0c-0.4,0-0.6,0.4-0.6,0.7c0,0.4,0.3,0.8,0.8,0.8h4.5l0.1,0C17.7,10.9,18,10.6,18,10.2z M14.3,14
	c0.3,1.1-0.3,2.2-1.4,2.5l-0.6,0.1c0,0.3-0.1,0.6-0.1,0.9c0,0.3,0,0.6,0.1,0.9l0.5,0.1c1.1,0.3,1.8,1.4,1.5,2.5l-0.2,0.6
	c0.4,0.4,0.9,0.7,1.5,0.9l0.5-0.5c0.8-0.8,2.1-0.8,2.9,0l0.5,0.5c0.5-0.2,1-0.5,1.5-0.9L20.7,21c-0.3-1.1,0.3-2.2,1.4-2.5l0.6-0.1
	c0-0.3,0.1-0.6,0.1-0.9c0-0.3,0-0.6-0.1-0.9l-0.5-0.1c-1.1-0.3-1.8-1.4-1.5-2.5l0.2-0.6c-0.4-0.4-0.9-0.7-1.5-0.9L19,12.9
	c-0.8,0.8-2.1,0.8-2.9,0l-0.5-0.5c-0.5,0.2-1,0.5-1.5,0.9L14.3,14z M17.5,19c-0.8,0-1.4-0.7-1.4-1.5s0.6-1.5,1.4-1.5
	s1.4,0.7,1.4,1.5S18.3,19,17.5,19z"/>
</svg>
