<?xml version="1.0" encoding="utf-8"?>
<!-- Generator: Adobe Illustrator 25.2.3, SVG Export Plug-In . SVG Version: 6.00 Build 0)  -->
<svg version="1.1" id="Camada_1" xmlns="http://www.w3.org/2000/svg" xmlns:xlink="http://www.w3.org/1999/xlink" x="0px" y="0px"
	 viewBox="0 0 32 32" style="enable-background:new 0 0 32 32;" xml:space="preserve">
<style type="text/css">
	.st0{fill:#F7EF89;}
	.st1{fill:#124078;}
</style>
<circle class="st0" cx="17.3" cy="16.1" r="14.4"/>
<path class="st1" d="M12,2.2c0.7,0,1.5,0.1,2.2,0.3c0.3,0.1,0.5,0.3,0.6,0.6l0.2,1.5c0.1,0.7,0.7,1.2,1.4,1.2c0.2,0,0.4,0,0.6-0.1
	l1.4-0.6c0.3-0.1,0.6-0.1,0.8,0.2c1,1.1,1.8,2.4,2.2,3.8c0.1,0.3,0,0.6-0.3,0.8l-1.2,0.9c-0.4,0.3-0.6,0.7-0.6,1.1
	c0,0.4,0.2,0.9,0.6,1.1l1.2,0.9c0.3,0.2,0.4,0.5,0.3,0.8c-0.4,1.4-1.2,2.7-2.2,3.8c-0.2,0.2-0.6,0.3-0.8,0.2l-1.4-0.6
	c-0.4-0.2-0.9-0.2-1.2,0.1c-0.4,0.2-0.6,0.6-0.7,1l-0.2,1.5c0,0.3-0.3,0.6-0.6,0.6c-1.4,0.3-3,0.3-4.4,0c-0.3-0.1-0.5-0.3-0.6-0.6
	l-0.2-1.5c0-0.4-0.3-0.8-0.7-1S7.5,18,7.1,18.2l-1.4,0.6c-0.3,0.1-0.6,0.1-0.8-0.2c-1-1.1-1.8-2.4-2.2-3.8c-0.1-0.3,0-0.6,0.3-0.8
	l1.2-0.9c0.4-0.3,0.6-0.7,0.6-1.1c0-0.4-0.2-0.9-0.6-1.1L2.9,10C2.7,9.8,2.6,9.5,2.7,9.1c0.4-1.4,1.2-2.7,2.2-3.8
	c0.2-0.2,0.6-0.3,0.8-0.2l1.4,0.6C7.5,6,8,5.9,8.4,5.7c0.4-0.2,0.6-0.6,0.7-1l0.2-1.5c0-0.3,0.3-0.6,0.6-0.6
	C10.5,2.3,11.3,2.3,12,2.2z M12,3.7c-0.5,0-0.9,0-1.4,0.1l-0.1,1C10.4,5.8,9.9,6.6,9.1,7C8.3,7.5,7.4,7.5,6.5,7.2L5.6,6.8
	c-0.6,0.7-1,1.5-1.3,2.3l0.8,0.6c0.7,0.5,1.2,1.4,1.2,2.3c0,0.9-0.4,1.8-1.2,2.3l-0.8,0.6c0.3,0.8,0.8,1.6,1.3,2.3l0.9-0.4
	c0.8-0.4,1.8-0.3,2.6,0.1c0.8,0.5,1.3,1.3,1.4,2.2l0.1,1c0.9,0.2,1.8,0.2,2.7,0l0.1-1c0.1-0.9,0.6-1.7,1.4-2.2
	c0.8-0.5,1.8-0.5,2.6-0.1l0.9,0.4c0.6-0.7,1-1.5,1.3-2.3l-0.8-0.6c-0.7-0.5-1.2-1.4-1.2-2.3c0-0.9,0.4-1.8,1.2-2.3l0.8-0.6
	c-0.3-0.8-0.8-1.6-1.3-2.3l-0.9,0.4c-0.4,0.2-0.8,0.2-1.2,0.2c-1.5,0-2.7-1.1-2.9-2.6l-0.1-1C12.9,3.8,12.5,3.8,12,3.7z M12,8.2
	c2.1,0,3.8,1.7,3.8,3.8c0,2.1-1.7,3.8-3.8,3.8c-2.1,0-3.7-1.7-3.7-3.8C8.2,9.9,9.9,8.2,12,8.2z M12,9.7c-1.2,0-2.2,1-2.2,2.3
	c0,1.2,1,2.2,2.2,2.2c1.2,0,2.2-1,2.2-2.2C14.2,10.8,13.2,9.7,12,9.7z"/>
</svg>
