<?xml version="1.0" encoding="utf-8"?>
<!-- Generator: Adobe Illustrator 25.2.3, SVG Export Plug-In . SVG Version: 6.00 Build 0)  -->
<svg version="1.1" id="Camada_1" xmlns="http://www.w3.org/2000/svg" xmlns:xlink="http://www.w3.org/1999/xlink" x="0px" y="0px"
	 viewBox="0 0 32 32" style="enable-background:new 0 0 32 32;" xml:space="preserve">
<style type="text/css">
	.st0{fill:#B4E1F9;}
	.st1{fill:#124078;}
</style>
<circle class="st0" cx="17.3" cy="16.1" r="14.4"/>
<path class="st1" d="M7,6.3V7H4.2C3,7,2,8,2,9.2v8.5C2,19,3,20,4.2,20h15.5c1.2,0,2.2-1,2.2-2.2V9.2C22,8,21,7,19.8,7H17V6.3
	C17,5,16,4,14.8,4H9.2C8,4,7,5,7,6.3z M9.2,5.5h5.5c0.4,0,0.8,0.3,0.8,0.8V7h-7V6.3C8.5,5.8,8.8,5.5,9.2,5.5z M7,8.5h1.5v0h7v0H17v0
	h2.8c0.4,0,0.8,0.3,0.8,0.8v2.2h-3v-0.8c0-0.4-0.3-0.7-0.8-0.7S16,10.3,16,10.7v0.8H8v-0.8C8,10.3,7.7,10,7.2,10s-0.8,0.3-0.8,0.7
	v0.8h-3V9.2c0-0.4,0.3-0.8,0.8-0.8L7,8.5L7,8.5z M16,13v1.2c0,0.4,0.3,0.8,0.8,0.8s0.8-0.3,0.8-0.8V13h3v4.7c0,0.4-0.3,0.8-0.8,0.8
	H4.2c-0.4,0-0.8-0.3-0.8-0.8V13h3v1.2c0,0.4,0.3,0.8,0.8,0.8S8,14.7,8,14.2V13H16z"/>
</svg>
