<?xml version="1.0" encoding="utf-8"?>
<!-- Generator: Adobe Illustrator 25.2.3, SVG Export Plug-In . SVG Version: 6.00 Build 0)  -->
<svg version="1.1" id="Camada_1" xmlns="http://www.w3.org/2000/svg" xmlns:xlink="http://www.w3.org/1999/xlink" x="0px" y="0px"
	 viewBox="0 0 32 32" style="enable-background:new 0 0 32 32;" xml:space="preserve">
<style type="text/css">
	.st0{fill:#96EAC8;}
	.st1{fill:#124078;}
</style>
<circle class="st0" cx="17.3" cy="16.1" r="14.4"/>
<path class="st1" d="M10,9c0-1.1,0.9-2,2-2s2,0.9,2,2v6c0,1.1-0.9,2-2,2s-2-0.9-2-2V9z M12,8.5c-0.3,0-0.5,0.2-0.5,0.5v6
	c0,0.3,0.2,0.5,0.5,0.5s0.5-0.2,0.5-0.5V9C12.5,8.7,12.3,8.5,12,8.5z"/>
<path class="st1" d="M5,14c0-1.1,0.9-2,2-2s2,0.9,2,2v1c0,1.1-0.9,2-2,2s-2-0.9-2-2V14z M7.5,14c0-0.3-0.2-0.5-0.5-0.5
	S6.5,13.7,6.5,14v1c0,0.3,0.2,0.5,0.5,0.5s0.5-0.2,0.5-0.5V14z"/>
<path class="st1" d="M17,10c-1.1,0-2,0.9-2,2v3c0,1.1,0.9,2,2,2s2-0.9,2-2v-3C19,10.9,18.1,10,17,10z M17.5,12v3
	c0,0.3-0.2,0.5-0.5,0.5s-0.5-0.2-0.5-0.5v-3c0-0.3,0.2-0.5,0.5-0.5S17.5,11.7,17.5,12z"/>
<path class="st1" d="M2,6.8C2,5.2,3.2,4,4.8,4h14.5C20.8,4,22,5.2,22,6.8v10.5c0,1.5-1.2,2.8-2.8,2.8H4.8C3.2,20,2,18.8,2,17.2V6.8z
	 M4.8,5.5c-0.7,0-1.2,0.6-1.2,1.2v10.5c0,0.7,0.6,1.2,1.2,1.2h14.5c0.7,0,1.2-0.6,1.2-1.2V6.8c0-0.7-0.6-1.2-1.2-1.2H4.8z"/>
</svg>
