<?xml version="1.0" encoding="utf-8"?>
<!-- Generator: Adobe Illustrator 25.2.3, SVG Export Plug-In . SVG Version: 6.00 Build 0)  -->
<svg version="1.1" id="Camada_1" xmlns="http://www.w3.org/2000/svg" xmlns:xlink="http://www.w3.org/1999/xlink" x="0px" y="0px"
	 viewBox="0 0 32 32" style="enable-background:new 0 0 32 32;" xml:space="preserve">
<style type="text/css">
	.st0{fill:#96EAC8;}
	.st1{fill:#124078;}
</style>
<circle class="st0" cx="17.3" cy="16.1" r="14.4"/>
<path class="st1" d="M2.5,4.2c0-0.4,0.3-0.8,0.8-0.8h0.6c1,0,1.5,0.6,1.8,1.2C5.9,5.1,6,5.6,6.1,6c0,0,0.1,0,0.1,0h12.5
	c0.8,0,1.4,0.8,1.2,1.6L18.1,14c-0.3,1.2-1.4,2-2.6,2H9.5c-1.2,0-2.3-0.8-2.7-2l-0.8-2.8L4.9,7l0,0C4.7,6.4,4.6,5.9,4.3,5.5
	C4.1,5.1,4,5,3.8,5H3.2C2.8,5,2.5,4.7,2.5,4.2z M7.6,10.8l0.8,2.7c0.1,0.5,0.6,0.9,1.2,0.9h5.9c0.6,0,1-0.4,1.2-0.9l1.7-6.1H6.6
	L7.6,10.8C7.6,10.8,7.6,10.8,7.6,10.8z"/>
<path class="st1" d="M11,19c0,1.1-0.9,2-2,2c-1.1,0-2-0.9-2-2s0.9-2,2-2C10.1,17,11,17.9,11,19z M9.5,19c0-0.3-0.2-0.5-0.5-0.5
	S8.5,18.7,8.5,19s0.2,0.5,0.5,0.5S9.5,19.3,9.5,19z"/>
<path class="st1" d="M18,19c0,1.1-0.9,2-2,2s-2-0.9-2-2s0.9-2,2-2S18,17.9,18,19z M16.5,19c0-0.3-0.2-0.5-0.5-0.5s-0.5,0.2-0.5,0.5
	s0.2,0.5,0.5,0.5S16.5,19.3,16.5,19z"/>
</svg>
