<?xml version="1.0" encoding="utf-8"?>
<!-- Generator: Adobe Illustrator 25.2.3, SVG Export Plug-In . SVG Version: 6.00 Build 0)  -->
<svg version="1.1" id="Camada_1" xmlns="http://www.w3.org/2000/svg" xmlns:xlink="http://www.w3.org/1999/xlink" x="0px" y="0px"
	 viewBox="0 0 32 32" style="enable-background:new 0 0 32 32;" xml:space="preserve">
<style type="text/css">
	.st0{fill:#96EAC8;}
	.st1{fill:#124078;}
</style>
<circle class="st0" cx="17.3" cy="16.1" r="14.4"/>
<path class="st1" d="M3,6.2C3,4.5,4.5,3,6.2,3h11.5C19.5,3,21,4.5,21,6.2v11.5c0,1.8-1.5,3.2-3.2,3.2H6.2C4.5,21,3,19.5,3,17.8V6.2z
	 M6.2,4.5c-1,0-1.8,0.8-1.8,1.8v2.2h4v-4H6.2z M4.5,10v4h4v-4H4.5z M10,10v4h4v-4H10z M15.5,10v4h4v-4H15.5z M14,15.5h-4v4h4V15.5z
	 M15.5,19.5h2.2c1,0,1.8-0.8,1.8-1.8v-2.2h-4V19.5z M15.5,8.5h4V6.2c0-1-0.8-1.8-1.8-1.8h-2.2V8.5z M14,4.5h-4v4h4V4.5z M4.5,15.5
	v2.2c0,1,0.8,1.8,1.8,1.8h2.2v-4H4.5z"/>
</svg>
