<?xml version="1.0" encoding="utf-8"?>
<!-- Generator: Adobe Illustrator 25.2.3, SVG Export Plug-In . SVG Version: 6.00 Build 0)  -->
<svg version="1.1" id="Camada_1" xmlns="http://www.w3.org/2000/svg" xmlns:xlink="http://www.w3.org/1999/xlink" x="0px" y="0px"
	 viewBox="0 0 32 32" style="enable-background:new 0 0 32 32;" xml:space="preserve">
<style type="text/css">
	.st0{fill:#96EAC8;}
	.st1{fill:#124078;}
</style>
<circle class="st0" cx="17.3" cy="16.1" r="14.4"/>
<path class="st1" d="M23,6.5c0-3-2.5-5.5-5.5-5.5S12,3.5,12,6.5s2.5,5.5,5.5,5.5S23,9.5,23,6.5z M18,7l0,2.5c0,0.3-0.2,0.5-0.5,0.5
	C17.2,10,17,9.8,17,9.5L17,7h-2.5C14.2,7,14,6.8,14,6.5S14.2,6,14.5,6H17l0-2.5C17,3.2,17.2,3,17.5,3S18,3.2,18,3.5L18,6h2.5
	C20.8,6,21,6.2,21,6.5S20.8,7,20.5,7H18z M20.5,16.3l0-4c0.6-0.3,1.1-0.7,1.5-1.1l0,5.1c0,1.2-1,2.3-2.2,2.3l-1.8,0v1.2
	c0,1.2-1,2.2-2.2,2.2H8.2C7,22,6,21,6,19.8l0-1.2l-1.8,0c-1.2,0-2.2-1-2.2-2.2v-6C2,8.5,3.5,7,5.2,7L6,7l0-0.8C6,5,7,4,8.2,4h3.2
	c-0.2,0.5-0.3,1-0.4,1.5H8.2c-0.4,0-0.8,0.3-0.8,0.8l0,0.8H11c0,0.5,0.1,1,0.3,1.5H5.2c-1,0-1.8,0.8-1.8,1.8v6
	c0,0.4,0.3,0.8,0.8,0.8L6,17v-1.8C6,14,7,13,8.2,13h7.5c1.2,0,2.2,1,2.2,2.2l0,1.8l1.8,0C20.2,17,20.5,16.7,20.5,16.3z M16.5,15.2
	c0-0.4-0.3-0.8-0.8-0.8H8.2c-0.4,0-0.8,0.3-0.8,0.8v4.5c0,0.4,0.3,0.8,0.8,0.8h7.5c0.4,0,0.8-0.3,0.8-0.8V15.2z"/>
</svg>
