<?xml version="1.0" encoding="utf-8"?>
<!-- Generator: Adobe Illustrator 25.2.3, SVG Export Plug-In . SVG Version: 6.00 Build 0)  -->
<svg version="1.1" id="Camada_1" xmlns="http://www.w3.org/2000/svg" xmlns:xlink="http://www.w3.org/1999/xlink" x="0px" y="0px"
	 viewBox="0 0 32 32" style="enable-background:new 0 0 32 32;" xml:space="preserve">
<style type="text/css">
	.st0{fill:#96EAC8;}
	.st1{fill:#124078;}
</style>
<circle class="st0" cx="17.3" cy="16.1" r="14.4"/>
<path class="st1" d="M18,2c0.2,0,0.3,0.1,0.5,0.2l0.1,0.1l3.3,3.5l0,0C22,5.9,22,6.1,22,6.2l0,1.9c0,1-0.4,1.9-1,2.6l0,10.5
	c0,0.4-0.3,0.7-0.6,0.7l-0.1,0H3.8c-0.4,0-0.7-0.3-0.7-0.6l0-0.1l0-10.5c-0.6-0.6-0.9-1.4-1-2.4l0-0.2l0-1.9C2,6.2,2,6,2.1,5.9
	l0.1-0.1l0,0l3.2-3.5C5.6,2.1,5.7,2,5.9,2L6,2H18z M15.1,10.4L15.1,10.4c-0.7,1-1.8,1.6-3.1,1.6c-1.3,0-2.4-0.6-3.1-1.6
	C8.2,11.4,7.1,12,5.8,12c-0.5,0-0.9-0.1-1.3-0.2l0,8.7H6l0-6.7c0-0.4,0.3-0.7,0.6-0.7l0.1,0h4.5c0.4,0,0.7,0.3,0.7,0.6l0,0.1l0,6.7
	h7.5l0-8.7c-0.4,0.2-0.9,0.2-1.3,0.2C16.9,12,15.8,11.4,15.1,10.4z M10.5,14.5h-3v6h3V14.5z M17.3,13c0.4,0,0.7,0.3,0.7,0.6l0,0.1
	v3.5c0,0.4-0.3,0.7-0.6,0.7l-0.1,0h-3.5c-0.4,0-0.7-0.3-0.7-0.6l0-0.1v-3.5c0-0.4,0.3-0.7,0.6-0.7l0.1,0H17.3z M16.5,14.5h-2v2h2
	V14.5z M8.2,7H3.5l0,1.2l0,0.2l0,0.2l0,0.2l0,0.2L3.7,9l0,0.1c0,0.1,0.1,0.1,0.1,0.2l0.1,0.2L4,9.6l0.1,0.2l0.1,0.1L4.3,10l0,0
	c0.3,0.3,0.7,0.4,1.1,0.5l0.2,0l0.2,0c1.2,0,2.2-1,2.3-2.2l0-0.2L8.2,7z M14.3,7H9.7l0,1.2c0,1.2,0.9,2.2,2,2.3l0.2,0l0.2,0
	c1.2,0,2.2-1,2.3-2.2l0-0.2L14.3,7z M20.5,7h-4.7l0,1.2c0,1.2,0.9,2.2,2,2.3l0.2,0l0.2,0c0.6,0,1.1-0.2,1.5-0.5l0.1-0.1l0.1-0.1
	L20,9.6c0.1-0.1,0.1-0.1,0.2-0.2l0.1-0.2l0.1-0.1l0.1-0.2l0-0.1l0-0.2l0-0.2l0-0.2l0-0.2L20.5,7z M9.1,3.5H6.3l-1.9,2h4L9.1,3.5z
	 M13.4,3.5h-2.7l-0.6,2h4L13.4,3.5z M17.7,3.5h-2.7l0.6,2h4L17.7,3.5z"/>
</svg>
