<?xml version="1.0" encoding="utf-8"?>
<!-- Generator: Adobe Illustrator 25.2.3, SVG Export Plug-In . SVG Version: 6.00 Build 0)  -->
<svg version="1.1" id="Camada_1" xmlns="http://www.w3.org/2000/svg" xmlns:xlink="http://www.w3.org/1999/xlink" x="0px" y="0px"
	 viewBox="0 0 32 32" style="enable-background:new 0 0 32 32;" xml:space="preserve">
<style type="text/css">
	.st0{fill:#F7EF89;}
	.st1{fill:#124078;}
</style>
<circle class="st0" cx="17.3" cy="16.1" r="14.4"/>
<path class="st1" d="M15,1.9l4.5,4.5c0.3,0.3,0.3,0.7,0.1,1l-0.1,0.1L15,11.9c-0.3,0.3-0.8,0.3-1.1,0c-0.3-0.3-0.3-0.7-0.1-1
	l0.1-0.1l3.2-3.2l-11.7,0C5.1,7.7,4.7,7.4,4.7,7l0-0.1c0-0.4,0.3-0.7,0.6-0.7l0.1,0l11.7,0l-3.2-3.2c-0.3-0.3-0.3-0.7-0.1-1l0.1-0.1
	C14.2,1.6,14.6,1.6,15,1.9L15,1.9l4.5,4.5L15,1.9z M19.7,16.3l0,0.1c0,0.4-0.3,0.7-0.6,0.7l-0.1,0l-11.7,0l3.2,3.2
	c0.3,0.3,0.3,0.7,0.1,1l-0.1,0.1c-0.3,0.3-0.7,0.3-1,0.1l-0.1-0.1l-4.5-4.5c-0.3-0.3-0.3-0.7-0.1-1l0.1-0.1l4.5-4.5
	c0.3-0.3,0.8-0.3,1.1,0c0.3,0.3,0.3,0.7,0.1,1l-0.1,0.1l-3.2,3.2l11.7,0C19.3,15.7,19.7,15.9,19.7,16.3l0,0.1L19.7,16.3z"/>
</svg>
