<?xml version="1.0" encoding="utf-8"?>
<!-- Generator: Adobe Illustrator 25.2.3, SVG Export Plug-In . SVG Version: 6.00 Build 0)  -->
<svg version="1.1" id="Camada_1" xmlns="http://www.w3.org/2000/svg" xmlns:xlink="http://www.w3.org/1999/xlink" x="0px" y="0px"
	 viewBox="0 0 32 32" style="enable-background:new 0 0 32 32;" xml:space="preserve">
<style type="text/css">
	.st0{fill:#F7EF89;}
	.st1{fill:#124078;}
</style>
<circle class="st0" cx="17.3" cy="16.1" r="14.4"/>
<path class="st1" d="M16,3.2c2.2,0,4,1.8,4,4s-1.8,4-4,4H6.7c-1.2,0-2.2,1-2.2,2.2s1,2.2,2.2,2.2H18l-0.3-0.3
	c-0.4-0.4-0.4-0.9,0-1.3c0.4-0.4,0.9-0.4,1.3,0l1.9,1.9c0.4,0.4,0.4,0.9,0,1.3L19.1,19c-0.4,0.4-0.9,0.4-1.3,0
	c-0.4-0.4-0.4-0.9,0-1.3l0.3-0.3H6.7c-2.2,0-4-1.8-4-4c0-2.2,1.8-4,4-4H16c1.2,0,2.2-1,2.2-2.2s-1-2.2-2.2-2.2H3.6
	c-0.5,0-0.9-0.4-0.9-0.9s0.4-0.9,0.9-0.9H16z"/>
</svg>
