<?xml version="1.0" encoding="utf-8"?>
<!-- Generator: Adobe Illustrator 27.1.1, SVG Export Plug-In . SVG Version: 6.00 Build 0)  -->
<svg version="1.1" id="Camada_1" xmlns="http://www.w3.org/2000/svg" xmlns:xlink="http://www.w3.org/1999/xlink" x="0px" y="0px"
	 viewBox="0 0 24 24" style="enable-background:new 0 0 24 24;" xml:space="preserve">
<style type="text/css">
	.st0{fill:#124078;}
</style>
<g>
	<path class="st0" d="M10.7,9c0.6-0.7,1.4-1.1,2.3-1.1h-1.4l1.1-1.1h1.9c0.3,0,0.5-0.2,0.5-0.6c0-0.3-0.2-0.6-0.5-0.6h-0.8l1.7-1.8
		c0.1-0.1,0.2-0.3,0.3-0.4c0.7,0.1,1.3,0.8,1.3,1.6v2.8h1V5.1c0-1.5-1.1-2.8-2.6-2.8H6.4C5,2.3,3.8,3.6,3.8,5.1v10
		c0,1.5,1.1,2.8,2.6,2.8H10v-1.1H6.4c-0.8,0-1.5-0.7-1.5-1.7v-0.6c0.2,0,0.5-0.2,0.7-0.4l2.8-2.9H10c0-0.4,0.1-0.8,0.2-1.1H9.4
		L10.5,9H10.7z M7.9,10.1H7.4c-0.3,0-0.5,0.2-0.5,0.6c0,0.1,0.1,0.3,0.1,0.4l-2.2,2.2V5.1c0-0.9,0.7-1.7,1.5-1.7h8l-2.2,2.2H7.4
		c-0.3,0-0.5,0.2-0.5,0.6c0,0.3,0.2,0.6,0.5,0.6h3.7l-1.1,1.1H7.4c-0.3,0-0.5,0.2-0.5,0.6S7.1,9,7.4,9H9L7.9,10.1z"/>
	<path class="st0" d="M19.7,20.1c0.3,0,0.5-0.2,0.5-0.6v-8.3c0-1.2-0.9-2.2-2-2.2H13c-1.1,0-2,1-2,2.2v8.9c0,1.2,0.9,2.2,2,2.2h6.6
		c0.3,0,0.5-0.2,0.5-0.6c0-0.3-0.2-0.6-0.5-0.6H13c-0.6,0-1-0.5-1-1.1v0H19.7z M12,11.2c0-0.6,0.5-1.1,1-1.1h5.1c0.6,0,1,0.5,1,1.1
		V19H12V11.2z"/>
</g>
</svg>
