<?xml version="1.0" encoding="utf-8"?>
<!-- Generator: Adobe Illustrator 25.2.3, SVG Export Plug-In . SVG Version: 6.00 Build 0)  -->
<svg version="1.1" id="Camada_1" xmlns="http://www.w3.org/2000/svg" xmlns:xlink="http://www.w3.org/1999/xlink" x="0px" y="0px"
	 viewBox="0 0 32 32" style="enable-background:new 0 0 32 32;" xml:space="preserve">
<style type="text/css">
	.st0{fill:#B4E1F9;}
	.st1{fill:#124078;}
</style>
<circle class="st0" cx="17.3" cy="16.1" r="14.4"/>
<path class="st1" d="M11.7,20.5c-1.8,0-3.4-0.4-4.5-0.9c-0.6-0.3-1-0.6-1.3-0.9c-0.3-0.3-0.4-0.5-0.4-0.8V8.4C5.8,8.6,6.2,8.8,6.6,9
	C8,9.6,9.9,10,12,10c2.1,0,4-0.4,5.4-1c0.4-0.2,0.7-0.4,1.1-0.6v3.2H20V6c0-0.7-0.3-1.3-0.8-1.8c-0.5-0.5-1.1-0.9-1.8-1.2
	C16,2.4,14.1,2,12,2C9.9,2,8,2.4,6.6,3C5.9,3.3,5.2,3.7,4.8,4.2C4.3,4.7,4,5.3,4,6v12c0,0.7,0.3,1.3,0.8,1.8
	c0.5,0.5,1.1,0.9,1.8,1.2c1.4,0.6,3.2,1,5.1,1V20.5z M5.9,5.2C6.1,5,6.6,4.7,7.2,4.4c1.2-0.5,2.9-0.9,4.8-0.9s3.6,0.4,4.8,0.9
	c0.6,0.3,1,0.6,1.3,0.9c0.3,0.3,0.4,0.5,0.4,0.8s-0.1,0.5-0.4,0.8c-0.3,0.3-0.7,0.6-1.3,0.9c-1.2,0.5-2.9,0.9-4.8,0.9
	S8.4,8.1,7.2,7.6C6.6,7.3,6.1,7,5.9,6.8C5.6,6.5,5.5,6.2,5.5,6S5.6,5.5,5.9,5.2z"/>
<polygon class="st1" points="21.9,16.5 18.1,16.5 18.1,12.7 16.4,12.7 16.4,16.5 12.6,16.5 12.6,18.2 16.4,18.2 16.4,22 18.1,22 
	18.1,18.2 21.9,18.2 "/>
</svg>
