<?xml version="1.0" encoding="utf-8"?>
<!-- Generator: Adobe Illustrator 25.2.3, SVG Export Plug-In . SVG Version: 6.00 Build 0)  -->
<svg version="1.1" id="Camada_1" xmlns="http://www.w3.org/2000/svg" xmlns:xlink="http://www.w3.org/1999/xlink" x="0px" y="0px"
	 viewBox="0 0 32 32" style="enable-background:new 0 0 32 32;" xml:space="preserve">
<style type="text/css">
	.st0{fill:#B4E1F9;}
	.st1{fill:#124078;}
</style>
<circle class="st0" cx="17.3" cy="16.1" r="14.4"/>
<path class="st1" d="M18.2,20.5c0.4,0,0.8,0.3,0.8,0.7S18.7,22,18.3,22l-13,0c-0.4,0-0.8-0.3-0.8-0.7s0.3-0.8,0.7-0.8L18.2,20.5z
	 M11.6,2l0.1,0c0.4,0,0.7,0.3,0.7,0.6l0,0.1l0,13.7l3.7-3.7c0.3-0.3,0.7-0.3,1-0.1l0.1,0.1c0.3,0.3,0.3,0.7,0.1,1l-0.1,0.1l-5,5
	c-0.3,0.3-0.7,0.3-1,0.1l-0.1-0.1l-5-5c-0.3-0.3-0.3-0.8,0-1.1c0.3-0.3,0.7-0.3,1-0.1l0.1,0.1l3.7,3.7l0-13.7
	C11,2.4,11.3,2.1,11.6,2l0.1,0L11.6,2z"/>
</svg>
