<?xml version="1.0" encoding="utf-8"?>
<!-- Generator: Adobe Illustrator 27.1.1, SVG Export Plug-In . SVG Version: 6.00 Build 0)  -->
<svg version="1.1" id="Camada_1" xmlns="http://www.w3.org/2000/svg" xmlns:xlink="http://www.w3.org/1999/xlink" x="0px" y="0px"
	 viewBox="0 0 24 24" style="enable-background:new 0 0 24 24;" xml:space="preserve">
<style type="text/css">
	.st0{fill:#124078;}
</style>
<path class="st0" d="M3.8,5.1c0-1.5,1.1-2.8,2.6-2.8h9.2c1.4,0,2.6,1.2,2.6,2.8v2.8h-1V5.1c0-0.9-0.7-1.7-1.5-1.7H6.4
	c-0.8,0-1.5,0.7-1.5,1.7v10c0,0.9,0.7,1.7,1.5,1.7H10v1.1H6.4c-1.4,0-2.6-1.2-2.6-2.8V5.1z M7.4,7.9H13c-0.9,0-1.7,0.4-2.3,1.1H7.4
	C7.1,9,6.9,8.7,6.9,8.4S7.1,7.9,7.4,7.9z M10.1,10.1H7.4c-0.3,0-0.5,0.2-0.5,0.6s0.2,0.6,0.5,0.6H10C10,10.8,10,10.4,10.1,10.1z
	 M7.4,5.7c-0.3,0-0.5,0.2-0.5,0.6s0.2,0.6,0.5,0.6h7.1c0.3,0,0.5-0.2,0.5-0.6s-0.2-0.6-0.5-0.6H7.4z M20.2,11.2c0-1.2-0.9-2.2-2-2.2
	H13c-1.1,0-2,1-2,2.2v8.9c0,1.2,0.9,2.2,2,2.2h6.6c0.3,0,0.5-0.2,0.5-0.6s-0.2-0.6-0.5-0.6H13c-0.6,0-1-0.5-1-1.1v0h7.7
	c0.3,0,0.5-0.2,0.5-0.6V11.2z M12,19v-7.8c0-0.6,0.5-1.1,1-1.1h5.1c0.6,0,1,0.5,1,1.1V19H12z"/>
</svg>
