<?xml version="1.0" encoding="utf-8"?>
<!-- Generator: Adobe Illustrator 27.1.1, SVG Export Plug-In . SVG Version: 6.00 Build 0)  -->
<svg version="1.1" id="Camada_1" xmlns="http://www.w3.org/2000/svg" xmlns:xlink="http://www.w3.org/1999/xlink" x="0px" y="0px"
	 viewBox="0 0 24 24" style="enable-background:new 0 0 24 24;" xml:space="preserve">
<style type="text/css">
	.st0{fill:#124078;}
</style>
<path class="st0" d="M6.1,2.4c-1.5,0-2.7,1.2-2.7,2.7v9.7c0,1.5,1.2,2.7,2.7,2.7h3.8V11H7.2c-0.3,0-0.5-0.2-0.5-0.5
	c0-0.3,0.2-0.5,0.5-0.5H10c0.1-0.4,0.4-0.8,0.6-1.1H7.2c-0.3,0-0.5-0.2-0.5-0.5s0.2-0.5,0.5-0.5h11.3V5.1c0-1.5-1.2-2.7-2.7-2.7H6.1
	z M6.6,6.2c0-0.3,0.2-0.5,0.5-0.5h7.5c0.3,0,0.5,0.2,0.5,0.5S15,6.7,14.7,6.7H7.2C6.9,6.7,6.6,6.5,6.6,6.2z M20.6,11
	c0-1.2-1-2.2-2.2-2.2h-5.4c-1.2,0-2.2,1-2.2,2.2v8.6c0,1.2,1,2.2,2.2,2.2h7c0.3,0,0.5-0.2,0.5-0.5c0-0.3-0.2-0.5-0.5-0.5h-7
	c-0.6,0-1.1-0.5-1.1-1.1v0h8.1c0.3,0,0.5-0.2,0.5-0.5V11z M12,18.6V11c0-0.6,0.5-1.1,1.1-1.1h5.4c0.6,0,1.1,0.5,1.1,1.1v7.5H12z"/>
</svg>
