<?xml version="1.0" encoding="utf-8"?>
<!-- Generator: Adobe Illustrator 25.2.3, SVG Export Plug-In . SVG Version: 6.00 Build 0)  -->
<svg version="1.1" id="Camada_1" xmlns="http://www.w3.org/2000/svg" xmlns:xlink="http://www.w3.org/1999/xlink" x="0px" y="0px"
	 viewBox="0 0 32 32" style="enable-background:new 0 0 32 32;" xml:space="preserve">
<style type="text/css">
	.st0{fill:#B4E1F9;}
	.st1{fill:#124078;}
</style>
<circle class="st0" cx="17.3" cy="16.1" r="14.4"/>
<path class="st1" d="M15.8,3C17,3,18,4,18,5.2L18,6l0.8,0C20.5,6,22,7.5,22,9.3l0,6c0,1.2-1,2.3-2.2,2.3l-1.8,0v1.2
	c0,1.2-1,2.2-2.2,2.2H8.2C7,21,6,20,6,18.8l0-1.2l-1.8,0c-1.2,0-2.2-1-2.2-2.2v-6C2,7.5,3.5,6,5.2,6L6,6l0-0.8C6,4,7,3,8.2,3H15.8z
	 M15.8,13.5H8.2c-0.4,0-0.8,0.3-0.8,0.8v4.5c0,0.4,0.3,0.8,0.8,0.8h7.5c0.4,0,0.8-0.3,0.8-0.8v-4.5C16.5,13.8,16.2,13.5,15.8,13.5z
	 M18.8,7.5H5.2c-1,0-1.8,0.8-1.8,1.8v6c0,0.4,0.3,0.7,0.8,0.7L6,16v-1.8C6,13,7,12,8.2,12h7.5c1.2,0,2.2,1,2.2,2.2l0,1.8l1.8,0
	c0.4,0,0.7-0.3,0.7-0.7l0-6C20.5,8.3,19.7,7.5,18.8,7.5z M15.8,4.5H8.2c-0.4,0-0.8,0.3-0.8,0.8l0,0.8h9l0-0.8
	C16.5,4.8,16.2,4.5,15.8,4.5z"/>
</svg>
