<?xml version="1.0" encoding="utf-8"?>
<!-- Generator: Adobe Illustrator 23.1.1, SVG Export Plug-In . SVG Version: 6.00 Build 0)  -->
<svg version="1.1" id="Capa_1" xmlns="http://www.w3.org/2000/svg" xmlns:xlink="http://www.w3.org/1999/xlink" x="0px" y="0px"
	 viewBox="0 0 627.5 84.1" style="enable-background:new 0 0 627.5 84.1;" xml:space="preserve">
<style type="text/css">
	.st0{fill:#0F4C98;}
	.st1{fill:#FFFFFF;}
	.st2{fill:none;}
	.st3{enable-background:new    ;}
</style>
<title>logodonajuana</title>
<circle class="st0" cx="42" cy="42" r="42"/>
<path class="st1" d="M32,18.5c0.1-5.5,4.5-9.9,10-9.8c5.5,0.1,9.9,4.5,9.8,10c-0.1,5.4-4.5,9.8-9.9,9.8C36.4,28.5,32,24,32,18.5
	L32,18.5z M42.9,11.1c-1.3,1.2-2.7,1.5-3.9,2.9c-0.9,1.3-0.9,1.4-1.7,1.8c0.4,0.9,0.5,1.9,0.3,2.9c-0.5,1.9-1.1,1.5-1.3,2.2
	c-0.1,0.2,0,0.2,0.2,0.2s1,0.2,1.5,0.4c1.3,0.4,2.4,1.2,3.2,2.2c0.3,0.3,0.7,0.5,1.1,0.5c0.6,0.1,0.6,0,1.2,0.1
	c0.9,0.4,0.5,0.4,0.2,1.4c0.3,0,0.6,0.1,0.8,0.4c0.4-1.3,0.1-3,0.2-3.9c0-1.9,1.2-1.5,2.2-1.3c-0.3-2.5-1-2.4-0.5-4.8
	c-4.8,0.3-5.7-1.9-3-4.7C43.5,11.3,43.3,10.9,42.9,11.1z M37.9,10.7c0-0.1-0.1-0.2-0.2-0.1s-0.4,0.2-0.4,0.4c-0.1,0-0.2,0.1-0.2,0.3
	v0.1c-0.2,0-0.1,0.3,0,0.4c-0.1,0.3-0.2,0.4-0.2,0.7s0.3,0.2,0.3,0.1c0.2-0.4,0.3-0.8,0.3-1.2c0-0.1,0-0.1,0-0.2
	C37.7,10.9,37.9,10.8,37.9,10.7z M38.8,10.7l-0.2-0.1c-0.1,0.1-0.1,0.2-0.2,0.3c-0.2,0-0.2,0-0.2,0c0,0.1,0,0.2,0,0.3
	c-0.1,0.1,0,0.2,0,0.3c0.3,0,0.5-0.2,0.6-0.4c0-0.1,0-0.1,0-0.2C38.7,10.9,38.7,10.8,38.8,10.7L38.8,10.7z"/>
<path class="st1" d="M39.5,33.8c0,0.3-0.2,0.5-0.5,0.5l0,0c-0.3,0-0.5-0.2-0.5-0.5s0.2-0.5,0.5-0.5l0,0
	C39.3,33.3,39.5,33.5,39.5,33.8z M36.8,31.1c-5.8-3.8-7.8-5.4-8.4-14.6c0-0.9-0.4-0.5-0.5-0.5c-4.3,3.3-0.5,10.6,0.8,13.1
	c0.1,0.1,0.1,0.3-0.1,0.4s-0.3,0.1-0.4-0.1c-2.7-3-3-6.1-3.9-10.8c0-0.3-0.2-0.7-0.6-0.2c-3,5.5,2,12.3,3.4,13.6
	c0.3,0.4-0.2,0.7-0.4,0.5c-3.2-2.8-3.4-4.4-4.9-9.3c-0.1-0.6-0.5-0.4-0.6,0c-1.5,6.1,2.5,10.2,4.7,12.2c0.3,0.2,0,0.7-0.2,0.5
	c-4.2-2.7-3.5-3.8-5-6.1c-0.1-0.3-0.4-0.4-0.4,0.1c-0.3,6.4,5.9,11.4,11.8,11.3c2.6-0.1,5-1.5,6.5-3.6c0.7-1.2,0.7-1.8,3.1-1.8
	C40.9,31.3,38.9,32.1,36.8,31.1L36.8,31.1z"/>
<path class="st1" d="M45.3,33.8c0,0.3-0.2,0.5-0.5,0.5l0,0c-0.3,0-0.5-0.2-0.5-0.5s0.2-0.5,0.5-0.5C45.1,33.4,45.3,33.6,45.3,33.8z
	 M45.4,37.5c1.5,2.2,3.9,3.5,6.5,3.6c5.8,0,12-5,11.7-11.3c0-0.5-0.2-0.4-0.4-0.1c-1.4,2.3-0.8,3.5-5,6.1c-0.3,0.2-0.5-0.2-0.2-0.5
	c2.2-2,6.2-6.1,4.7-12.2c-0.1-0.4-0.5-0.6-0.6,0c-1.5,5-1.7,6.5-4.9,9.4c-0.2,0.2-0.7-0.1-0.5-0.5c1.4-1.3,6.4-8.1,3.4-13.6
	c-0.4-0.5-0.6-0.2-0.6,0.2c-0.9,4.7-1.2,7.8-3.9,10.8c-0.1,0.1-0.3,0.2-0.4,0.1c-0.1-0.1-0.2-0.3-0.1-0.4c1.3-2.5,5.1-9.8,0.8-13.1
	c-0.1,0-0.4-0.4-0.5,0.5c-0.6,9.2-2.7,10.9-8.4,14.6c-2.1,1.1-4.2,0.2-4.7,4.7C44.7,35.7,44.7,36.3,45.4,37.5L45.4,37.5z"/>
<rect x="15.6" y="64.8" class="st1" width="52.5" height="0.4"/>
<path class="st1" d="M17.3,52.1h-1.7v-7.6l2-0.1c1,0,1.9,0.3,2.6,1s1,1.6,1,2.6C21.2,50.7,19.9,52.1,17.3,52.1z M16.9,45.6v5.2
	c0.2,0,0.5,0,0.7,0c0.6,0,1.2-0.2,1.6-0.7c0.4-0.6,0.6-1.3,0.6-2.1c0-1.6-0.8-2.4-2.3-2.4H16.9z"/>
<path class="st1" d="M27.4,49.7h-4c0,0.4,0.2,0.7,0.5,1s0.7,0.4,1.1,0.4c0.5,0,1-0.1,1.3-0.5l0.5,1c-0.6,0.4-1.3,0.6-2.1,0.5
	c-0.7,0-1.5-0.2-2-0.8c-1-1.2-1-3,0.1-4.2c0.5-0.5,1.2-0.8,2-0.8c0.7,0,1.5,0.2,2,0.7s0.8,1.2,0.7,1.8
	C27.5,49.1,27.4,49.3,27.4,49.7z M23.4,48.7h2.7c0-0.7-0.5-1.2-1.2-1.2h-0.1C24,47.5,23.5,48,23.4,48.7L23.4,48.7z"/>
<path class="st1" d="M31.6,45.4c-0.2-0.1-0.4-0.1-0.7-0.2c-0.2,0-0.5,0.1-0.6,0.3c-0.2,0.2-0.3,0.5-0.2,0.8v0.1h1.2v1.1h-1.1V52
	h-1.3v-4.5H28v-1.1h0.8c0-0.6,0.2-1.2,0.6-1.7c0.4-0.4,0.9-0.6,1.5-0.6c0.4,0,0.8,0.1,1.1,0.2L31.6,45.4z"/>
<path class="st1" d="M37.4,49.7h-4c0,0.4,0.2,0.7,0.5,1s0.7,0.4,1.1,0.4c0.5,0,1-0.1,1.3-0.5l0.5,1c-0.6,0.4-1.3,0.6-2,0.5
	c-0.7,0-1.5-0.2-2-0.8c-1-1.2-1-3,0-4.2c0.5-0.5,1.2-0.8,2-0.8c0.7,0,1.5,0.2,2,0.7s0.8,1.2,0.7,1.8C37.5,49.1,37.5,49.3,37.4,49.7z
	 M33.5,48.7h2.7c0-0.7-0.6-1.2-1.2-1.2c0,0,0,0-0.1,0C34.2,47.4,33.6,48,33.5,48.7L33.5,48.7z"/>
<path class="st1" d="M42.2,52.1v-3.2c0-0.4-0.1-0.7-0.3-1c-0.2-0.2-0.6-0.4-0.9-0.3c-0.2,0-0.4,0.1-0.6,0.2
	c-0.2,0.1-0.4,0.2-0.5,0.4v4h-1.3v-5.6h1l0.2,0.5c0.4-0.4,1-0.7,1.6-0.6c0.6,0,1.2,0.2,1.6,0.6c0.4,0.5,0.6,1.1,0.6,1.7v3.4
	L42.2,52.1L42.2,52.1z"/>
<path class="st1" d="M44.5,51.7l0.5-1c0.4,0.3,0.8,0.5,1.3,0.5s0.8-0.2,0.8-0.5c0-0.2-0.1-0.4-0.2-0.5c-0.3-0.2-0.6-0.4-0.9-0.5
	c-1-0.4-1.5-1-1.5-1.7c0-0.4,0.2-0.9,0.5-1.1c0.4-0.3,0.9-0.4,1.4-0.4c0.6,0,1.1,0.1,1.6,0.4l-0.4,1c-0.3-0.3-0.8-0.4-1.2-0.4
	c-0.5,0-0.7,0.2-0.7,0.5c0,0.2,0.1,0.3,0.2,0.4c0.3,0.2,0.6,0.3,1,0.5c0.4,0.1,0.8,0.4,1,0.7s0.3,0.6,0.3,1c0,0.5-0.2,0.9-0.6,1.2
	c-0.5,0.3-1,0.5-1.6,0.4c-0.3,0-0.6,0-0.9-0.1C45.2,52,44.8,51.9,44.5,51.7z"/>
<path class="st1" d="M49.1,49.3c0-0.8,0.2-1.5,0.7-2.1c1.1-1.1,2.8-1.1,3.9,0c0.9,1.3,0.9,3,0,4.2c-1.1,1.1-2.8,1.1-3.9,0
	C49.3,50.8,49.1,50.1,49.1,49.3z M50.5,49.3c0,1.2,0.4,1.8,1.3,1.8c0.4,0,0.8-0.2,1-0.5c0.3-0.4,0.4-0.9,0.4-1.4
	c0-1.2-0.4-1.8-1.3-1.8c-0.4,0-0.8,0.2-1,0.5C50.6,48.4,50.4,48.8,50.5,49.3z"/>
<path class="st1" d="M58.8,47.7c-0.2-0.1-0.5-0.2-0.8-0.2s-0.6,0.2-0.8,0.4c-0.2,0.3-0.4,0.6-0.4,1v3.2h-1.3v-5.6h1.3V47
	c0.4-0.4,0.9-0.6,1.4-0.6c0.3,0,0.7,0,1,0.2L58.8,47.7z"/>
<path class="st1" d="M60.5,52.1v-4.5h-0.7v-1.1h2v5.6H60.5z M62.3,44.2l-1.2,1.5h-1l0.9-1.5H62.3z"/>
<path class="st1" d="M66.4,51.5c-0.2,0.2-0.4,0.4-0.6,0.5c-0.3,0.1-0.6,0.2-0.9,0.2c-0.5,0-1-0.1-1.4-0.4C63.2,51.5,63,51,63,50.5
	c0-0.6,0.3-1.2,0.7-1.5c0.6-0.4,1.3-0.6,2.1-0.5c0.2,0,0.4,0,0.6,0.1c0-0.7-0.4-1-1.2-1c-0.4,0-0.8,0.1-1.2,0.2l-0.3-1
	c0.5-0.2,1-0.3,1.6-0.3c0.7-0.1,1.3,0.2,1.9,0.6c0.5,0.6,0.7,1.4,0.6,2.2v1.2c0,0.7,0.2,1.2,0.4,1.4c-0.1,0.2-0.2,0.3-0.4,0.3
	c-0.1,0-0.3,0.1-0.4,0.1c-0.2,0-0.4-0.1-0.5-0.2C66.6,51.9,66.5,51.7,66.4,51.5z M66.2,49.4c-0.2,0-0.3-0.1-0.5-0.1
	c-1,0-1.5,0.3-1.5,1c0,0.5,0.3,0.8,0.9,0.8c0.5,0.1,1.1-0.2,1.2-0.8c0-0.1,0-0.3,0-0.4L66.2,49.4L66.2,49.4z"/>
<path class="st1" d="M21.9,67.1l-0.2,0.4c-0.1-0.1-0.3-0.2-0.5-0.2s-0.4,0.1-0.5,0.3c-0.2,0.2-0.2,0.5-0.2,0.7s0.1,0.5,0.2,0.7
	s0.3,0.3,0.5,0.2c0.2,0,0.5-0.1,0.6-0.3l0.2,0.4c-0.2,0.2-0.5,0.3-0.8,0.3s-0.7-0.1-0.9-0.4c-0.2-0.3-0.3-0.6-0.3-1s0.1-0.7,0.3-1
	c0.2-0.3,0.5-0.4,0.9-0.4C21.5,66.9,21.7,66.9,21.9,67.1z"/>
<path class="st1" d="M25.9,68.2c0-0.4,0.1-0.7,0.3-1c0.2-0.3,0.5-0.4,0.8-0.4s0.7,0.1,0.9,0.4c0.2,0.3,0.3,0.6,0.3,1s-0.1,0.7-0.3,1
	c-0.2,0.3-0.6,0.4-0.9,0.4s-0.6-0.1-0.8-0.4C26,68.9,25.9,68.6,25.9,68.2z M26.4,68.2c0,0.3,0,0.5,0.2,0.7c0.1,0.2,0.3,0.3,0.5,0.2
	c0.2,0,0.4-0.1,0.5-0.2c0.1-0.2,0.2-0.5,0.2-0.7c0-0.6-0.2-0.9-0.7-0.9c-0.2,0-0.4,0.1-0.5,0.2C26.5,67.7,26.4,68,26.4,68.2
	L26.4,68.2z"/>
<path class="st1" d="M32.4,69.6v-2.7h0.5v2.2h1.2v0.4L32.4,69.6z"/>
<path class="st1" d="M38,68.2c0-0.4,0.1-0.7,0.3-1s0.5-0.4,0.8-0.4s0.7,0.1,0.9,0.4s0.3,0.6,0.3,1s-0.1,0.7-0.3,1s-0.6,0.4-0.9,0.4
	c-0.3,0-0.6-0.1-0.8-0.4C38.1,68.9,38,68.6,38,68.2z M38.5,68.2c0,0.3,0,0.5,0.2,0.7c0.1,0.2,0.3,0.3,0.5,0.2c0.2,0,0.4-0.1,0.5-0.2
	c0.1-0.2,0.2-0.5,0.2-0.7c0-0.6-0.2-0.9-0.7-0.9c-0.2,0-0.4,0.1-0.5,0.2C38.6,67.7,38.5,68,38.5,68.2L38.5,68.2z"/>
<path class="st1" d="M46.9,69.6h-0.5l-0.3-1.4l-0.5,1.5h-0.2l-0.6-1.5l-0.3,1.4H44l0.5-2.7H45l0.6,1.8l0.6-1.8h0.2L46.9,69.6z"/>
<path class="st1" d="M51.8,69.6H51v-2.7c0.4,0,0.6,0,0.8,0s0.5,0,0.7,0.2c0.2,0.1,0.2,0.3,0.2,0.5s-0.1,0.4-0.3,0.5
	c0.4,0.2,0.6,0.6,0.4,1c0,0.1-0.1,0.2-0.2,0.3C52.3,69.5,52,69.6,51.8,69.6z M51.4,67.3V68h0.2c0.3,0,0.5-0.1,0.5-0.4
	s-0.2-0.3-0.4-0.3C51.6,67.3,51.5,67.3,51.4,67.3z M51.4,68.3v0.9h0.2c0.2,0,0.3,0,0.5-0.1c0.1-0.1,0.2-0.2,0.2-0.4
	c0-0.1,0-0.3-0.1-0.3c-0.1-0.1-0.3-0.1-0.5-0.1H51.4z"/>
<path class="st1" d="M56.9,69.6v-2.7h0.5v2.7H56.9z"/>
<path class="st1" d="M63.2,69.6L62.9,69H62l-0.2,0.6h-0.5l1.1-2.7h0.2l1.1,2.7H63.2z M62.5,67.7l-0.3,1h0.7L62.5,67.7z"/>
<path class="st1" d="M19.4,63v-0.3c-0.2,0.1-0.3,0.3-0.5,0.3c-0.3,0.1-0.5,0.1-0.8,0.1c-0.7,0-1.4-0.3-1.8-0.8
	c-0.5-0.6-0.7-1.3-0.7-2c0-0.8,0.2-1.6,0.8-2.2c0.5-0.5,1.2-0.9,1.9-0.8c0.4,0,0.8,0.1,1.2,0.2v-2.2l1.3-0.3v8H19.4z M19.4,58.8
	c-0.2-0.2-0.5-0.3-0.9-0.3c-0.5,0-0.9,0.1-1.2,0.5c-0.3,0.4-0.5,0.9-0.4,1.4c-0.1,0.8,0.4,1.6,1.3,1.7c0.1,0,0.3,0,0.4,0
	c0.2,0,0.3-0.1,0.5-0.1c0.1,0,0.3-0.1,0.4-0.2L19.4,58.8L19.4,58.8z"/>
<path class="st1" d="M27.1,60.6h-4c0,0.4,0.2,0.7,0.5,1s0.7,0.4,1.1,0.4c0.5,0,1-0.1,1.3-0.5l0.5,1c-0.6,0.4-1.3,0.6-2,0.6
	s-1.5-0.2-2-0.7s-0.8-1.3-0.8-2c0-0.8,0.3-1.6,0.8-2.1s1.2-0.8,2-0.8c0.7,0,1.4,0.2,1.9,0.7s0.8,1.1,0.7,1.8
	C27.2,60.1,27.1,60.3,27.1,60.6z M23.1,59.6h2.7c0-0.7-0.5-1.2-1.2-1.2h-0.1C23.8,58.4,23.2,58.9,23.1,59.6L23.1,59.6z"/>
<path class="st1" d="M28.5,55.3l1.3-0.3v6.3c0,0.7,0.2,1.1,0.6,1.2c-0.2,0.4-0.6,0.6-1,0.6c-0.6,0-0.9-0.4-0.9-1.2V55.3z"/>
<path class="st1" d="M36.1,60.2V63h-1.4v-7.7h1.6c0.9-0.1,1.8,0.1,2.6,0.5c0.6,0.4,0.9,1,0.8,1.7c0,1.8-1,2.6-3.1,2.6
	C36.5,60.3,36.3,60.3,36.1,60.2z M36.1,56.6V59c0.2,0,0.4,0,0.5,0c0.5,0,0.9-0.1,1.3-0.3c0.3-0.2,0.5-0.6,0.4-1
	c0-0.8-0.6-1.2-1.9-1.2C36.4,56.5,36.3,56.5,36.1,56.6z"/>
<path class="st1" d="M44.6,63v-0.5c-0.2,0.2-0.5,0.3-0.8,0.4c-0.3,0.1-0.6,0.2-0.9,0.2c-1.3,0-1.9-0.7-1.9-2.1v-3.6h1.3V61
	c0,0.7,0.3,1.1,1,1.1c0.3,0,0.6-0.1,0.8-0.2c0.2-0.1,0.4-0.3,0.5-0.5v-3.8h1.3V63H44.6z"/>
<path class="st1" d="M52.4,60.6h-4c0,0.4,0.2,0.7,0.5,1S49.6,62,50,62c0.5,0,1-0.1,1.3-0.5l0.5,1c-0.6,0.4-1.3,0.6-2,0.6
	c-1.4,0.1-2.7-0.9-2.8-2.3c0-0.1,0-0.3,0-0.4c0-0.8,0.3-1.6,0.8-2.1s1.2-0.8,2-0.8c0.7,0,1.4,0.2,1.9,0.7s0.8,1.1,0.7,1.8
	C52.5,60.1,52.4,60.3,52.4,60.6z M48.4,59.6h2.7c0-0.7-0.5-1.2-1.2-1.2h-0.1C49.1,58.4,48.5,58.9,48.4,59.6L48.4,59.6z"/>
<path class="st1" d="M54.5,62.7l-0.3,0.4h-0.7v-7.8l1.3-0.3v2.6c0.4-0.2,0.8-0.3,1.2-0.3c0.7,0,1.5,0.2,2,0.8c0.5,0.5,0.8,1.3,0.8,2
	c0,0.8-0.2,1.6-0.8,2.2c-0.5,0.5-1.2,0.8-2,0.8C55.4,63.2,54.9,63,54.5,62.7z M54.8,58.8v2.9c0.2,0.2,0.5,0.4,0.8,0.3
	c0.5,0.1,1-0.1,1.3-0.4c0.3-0.4,0.4-0.9,0.4-1.4c0-1.1-0.5-1.7-1.6-1.7C55.3,58.4,55,58.6,54.8,58.8L54.8,58.8z"/>
<path class="st1" d="M60.1,55.3l1.3-0.3v6.3c0,0.7,0.2,1.1,0.6,1.2c-0.2,0.4-0.6,0.6-1,0.6c-0.6,0-0.9-0.4-0.9-1.2L60.1,55.3z"/>
<path class="st1" d="M62.7,60.2c0-0.8,0.2-1.5,0.7-2.1c1.1-1.1,2.8-1.1,3.9,0c0.9,1.3,0.9,3,0,4.2c-0.5,0.5-1.3,0.8-2,0.8
	c-0.8,0-1.5-0.3-2-0.8C62.9,61.7,62.6,61,62.7,60.2z M64,60.2c0,1.2,0.4,1.8,1.3,1.8c0.4,0,0.8-0.2,1-0.5c0.3-0.4,0.4-0.9,0.4-1.4
	c0-1.2-0.4-1.8-1.3-1.8c-0.4,0-0.8,0.2-1,0.5C64.1,59.3,64,59.7,64,60.2z"/>
<rect x="100.3" y="14" class="st2" width="452" height="57"/>
<g class="st3">
	<path class="st1" d="M111.5,36.9c3.2,0.6,5.8,1.9,7.7,4.1c2,2.2,3,4.7,3.2,7.6c0.2,2-0.2,3.9-1,5.8c-0.8,1.9-2.1,3.5-3.9,4.8
		c-3.6,2.7-8.5,3.7-14.6,3c0,0.4-0.1,0.7-0.4,1c-0.3,0.3-0.6,0.4-0.9,0.4c-0.4,0-0.7-0.1-0.9-0.4c-0.3-0.3-0.4-0.6-0.4-0.9V62v-0.4
		c-0.4-0.3-0.5-0.7-0.5-1.2c0.1-0.3,0.2-0.6,0.5-0.8c0-1.5,0-4,0.1-7.5c0-3.5,0.1-6.2,0.1-8.1c0-1.5,0-2.9,0-4.3v-0.2
		c-0.1-4.4-0.2-8.4-0.5-11.9c-0.2-0.2-0.4-0.4-0.5-0.6c-0.2-0.6-0.1-1,0.3-1.4c0.2-0.7,0.6-1,1.2-1.1c0.4,0,0.7,0,1,0.2
		c2.8-0.7,5.5-1,7.9-0.8c2.1,0.2,3.7,0.7,4.9,1.6c1.5,1.2,2.2,2.8,2,5c-0.2,2.4-1.6,4.4-4.3,5.9C112,36.6,111.8,36.8,111.5,36.9z
		 M101.5,37.9l-1,0.2L101.5,37.9C101.5,38,101.5,37.9,101.5,37.9z M102.5,27.4c0.3,3,0.4,6.4,0.5,10l2.1-0.8
		c3.2-1.3,5.1-2.1,5.7-2.4c1.9-1.1,2.9-2.4,3-3.9c0.1-1.1-0.2-2-0.9-2.5c-0.7-0.6-1.9-0.9-3.4-1C107.3,26.5,105,26.8,102.5,27.4z
		 M102.9,59.5c5.6,0.6,9.9-0.2,13-2.5c2.8-2.1,4.1-4.8,3.9-8.2c-0.1-2.1-0.8-3.9-2.1-5.5c-1.3-1.6-3.2-2.8-5.6-3.5
		c-2.4-0.7-5.4-0.5-9,0.6v0.1c0,1.2,0,2.4,0,3.6c0,1.9,0,4.6-0.1,8C102.9,55.6,102.9,58.1,102.9,59.5z"/>
	<path class="st1" d="M131.3,40.2c-0.7,1.9-1,5.3-1,10.2c0.1,4.9,0.6,8.2,1.4,9.9c0.2,0.4,0.2,0.7,0.1,1.1c-0.1,0.4-0.3,0.6-0.7,0.8
		c-0.4,0.2-0.7,0.2-1.1,0.1c-0.4-0.1-0.6-0.3-0.8-0.7c-1.1-2.1-1.6-5.8-1.7-11.2c-0.1-5.2,0.3-8.9,1.1-11.1c0.2-0.4,0.4-0.6,0.7-0.8
		c0.3-0.2,0.7-0.2,1,0c0.4,0.1,0.6,0.4,0.8,0.7C131.3,39.6,131.4,39.9,131.3,40.2z M131.2,32.8c0.3,0.3,0.4,0.6,0.4,0.9
		c0,0.4-0.1,0.7-0.4,0.9c-0.3,0.3-0.6,0.4-0.9,0.4c-0.4,0-0.7-0.1-0.9-0.4c-0.3-0.3-0.4-0.6-0.4-0.9c0-0.4,0.1-0.7,0.4-0.9
		c0.3-0.3,0.6-0.4,0.9-0.4C130.6,32.4,130.9,32.6,131.2,32.8z"/>
	<path class="st1" d="M138.4,22.9c1.2,7.3,1.6,15.6,1.4,24.7c2.5-4.8,5.1-7.4,7.9-8c1.5-0.4,2.8-0.1,3.9,0.6c1.1,0.8,2,1.9,2.6,3.4
		c0.6,1.3,0.8,2.8,0.8,4.4c0,1.6-0.3,3.3-0.8,5c-0.5,1.7-1.5,3.3-3,4.7c-1.4,1.5-3.2,2.6-5.3,3.5c-2.8,1.1-5.2,1.3-7.1,0.8
		c-0.1,0.4-0.2,0.7-0.5,0.9c-0.3,0.3-0.6,0.4-1,0.3c-0.4-0.1-0.7-0.2-0.9-0.5c-0.3-0.3-0.4-0.6-0.3-1l0.1-1.1
		c-0.5-0.6-0.5-1.1,0-1.7c0.1-0.1,0.1-0.2,0.2-0.2c1.1-13.3,0.9-25-0.8-35.2c-0.1-0.4,0-0.8,0.3-1.1c0.2-0.3,0.5-0.5,0.9-0.5
		c0.4,0,0.7,0,1,0.3C138.2,22.2,138.3,22.5,138.4,22.9z M139.2,58.3l-0.1,0.8c1.5,0.6,3.5,0.4,5.8-0.5c1.7-0.7,3.2-1.6,4.3-2.8
		c1.2-1.2,2-2.5,2.4-3.8c0.4-1.3,0.7-2.7,0.7-3.9c0-1.3-0.2-2.5-0.6-3.5c-0.8-1.9-1.9-2.7-3.4-2.4c-2.1,0.5-4.3,3-6.6,7.7
		c-1.1,2.2-1.8,4.8-2.2,7.8C139.4,57.9,139.3,58.1,139.2,58.3z"/>
	<path class="st1" d="M164,22.4c-1.1,4.3-1.6,10.8-1.6,19.6c0,8.8,0.7,15.3,2,19.6c0.1,0.4,0.1,0.7-0.1,1c-0.2,0.3-0.4,0.5-0.8,0.6
		c-0.4,0.1-0.7,0.1-1-0.1c-0.3-0.2-0.5-0.4-0.6-0.8c-1.4-4.5-2.1-11.3-2.1-20.3c-0.1-9.1,0.5-15.8,1.7-20.3c0.1-0.4,0.2-0.6,0.6-0.8
		c0.3-0.2,0.7-0.2,1.1-0.2c0.4,0.1,0.7,0.3,0.8,0.6C164,21.6,164.1,22,164,22.4z"/>
	<path class="st1" d="M173.5,40.2c-0.7,1.9-1,5.3-1,10.2c0.1,4.9,0.6,8.2,1.4,9.9c0.2,0.4,0.2,0.7,0.1,1.1c-0.1,0.4-0.3,0.6-0.7,0.8
		c-0.4,0.2-0.7,0.2-1.1,0.1c-0.4-0.1-0.6-0.3-0.8-0.7c-1.1-2.1-1.6-5.8-1.7-11.2c-0.1-5.2,0.3-8.9,1.1-11.1c0.2-0.4,0.4-0.6,0.7-0.8
		c0.3-0.2,0.7-0.2,1,0c0.4,0.1,0.6,0.4,0.8,0.7C173.5,39.6,173.6,39.9,173.5,40.2z M173.4,32.8c0.3,0.3,0.4,0.6,0.4,0.9
		c0,0.4-0.1,0.7-0.4,0.9c-0.3,0.3-0.6,0.4-0.9,0.4c-0.4,0-0.7-0.1-0.9-0.4c-0.3-0.3-0.4-0.6-0.4-0.9c0-0.4,0.1-0.7,0.4-0.9
		c0.3-0.3,0.6-0.4,0.9-0.4C172.8,32.4,173.1,32.6,173.4,32.8z"/>
	<path class="st1" d="M188.5,37.9c2.5,1,4.3,2.9,5.4,5.8c1.1,2.9,1.4,5.9,1.1,9c-0.4,3.4-1.5,6.2-3.2,8.2c-2.1,2.5-4.8,3.4-7.9,2.7
		c-2.6-0.7-4.5-2.5-5.7-5.5c-1-2.5-1.2-5.4-0.8-8.7c0.4-3.3,1.4-6,3-8.3c1.8-2.7,4.1-4.1,6.8-4.3C187.9,36.8,188.3,37.1,188.5,37.9z
		 M186.1,39.8c-1.3,0.4-2.5,1.3-3.5,2.8c-1.3,1.9-2.2,4.3-2.5,7.1c-0.4,2.8-0.1,5.2,0.7,7.4c0.8,2.1,2,3.4,3.7,3.7
		c2.1,0.5,3.8,0,5.2-1.7c1.4-1.6,2.2-3.9,2.5-6.8c0.3-2.9,0-5.6-1-7.9c-1-2.4-2.5-3.8-4.5-4.4C186.5,40,186.3,39.9,186.1,39.8z"/>
	<path class="st1" d="M196.3,42.5c2.1,0.1,4.3,0,6.6-0.4c0-1.9,0-4.9,0.1-9.1c0.1-4.2,0.1-7.3,0.1-9.5c0-0.4,0.1-0.7,0.4-0.9
		c0.3-0.3,0.6-0.4,0.9-0.4c0.4,0,0.7,0.1,0.9,0.4c0.3,0.3,0.4,0.6,0.4,0.9c0,2.2,0,5.4-0.1,9.5c-0.1,4.1-0.1,7-0.1,8.7
		c1.9-0.5,3.8-1,5.8-1.7c0.4-0.1,0.7-0.1,1,0.1c0.3,0.2,0.6,0.4,0.7,0.8c0.1,0.4,0.1,0.7,0,1c-0.2,0.3-0.4,0.6-0.8,0.7
		c-2.3,0.8-4.5,1.4-6.7,1.9c0,6.4,0.3,11.9,0.8,16.7c0,0.4-0.1,0.7-0.3,1c-0.3,0.3-0.6,0.5-0.9,0.5c-0.4,0-0.7-0.1-1-0.3
		c-0.3-0.3-0.5-0.6-0.5-0.9c-0.6-4.8-0.8-10.2-0.8-16.5c-2.3,0.3-4.6,0.4-6.8,0.3c-0.4,0-0.7-0.1-0.9-0.4c-0.3-0.3-0.4-0.6-0.4-1
		c0-0.4,0.1-0.7,0.4-0.9C195.6,42.7,195.9,42.5,196.3,42.5z"/>
	<path class="st1" d="M219.2,47.8h-2.9c-0.4,0-0.7-0.1-1-0.4c-0.3-0.3-0.4-0.6-0.4-0.9c0-0.4,0.1-0.7,0.4-1c0.3-0.3,0.6-0.4,0.9-0.4
		h3.4l0.3-1.2c1-4.1,2.7-6.6,5.1-7.4c1.6-0.6,3-0.5,4.3,0.3c1.3,0.8,2.3,1.9,3.2,3.3c0.6,1.1,1.1,2.3,1.5,3.4c0.2,0.6,0.2,1,0.2,1.4
		c0,0.2,0.1,0.4,0.1,0.6c-0.1,0.5-0.2,0.8-0.5,1.1c-0.3,0.3-0.8,0.5-1.6,0.7c-0.5,0.1-1.2,0.2-2,0.2c-1.3,0.2-3,0.2-5.1,0.2
		c-0.9,0.1-1.9,0.1-3.1,0.1c-0.2,2.2-0.2,4.4,0.2,6.5c0.6,3.3,1.6,5.3,3,6.1c1.6,0.8,3.8-0.2,6.7-3c0.3-0.3,0.6-0.4,1-0.4
		c0.4,0,0.7,0.1,0.9,0.4c0.3,0.3,0.4,0.6,0.4,0.9c0,0.4-0.1,0.7-0.4,1c-3.8,3.7-7.1,4.9-9.9,3.5c-2.3-1.2-3.7-3.9-4.4-8
		C219.1,52.4,219,50.1,219.2,47.8z M231.4,44.6c0-0.1,0-0.2-0.1-0.3c-0.3-1-0.7-2-1.2-2.9c-1.3-2.2-2.7-3-4.1-2.4
		c-1.4,0.6-2.6,2.4-3.4,5.5c-0.1,0.2-0.1,0.3-0.2,0.5c1,0,1.8-0.1,2.6-0.1c2.1,0,3.7-0.1,4.9-0.2C230.5,44.8,231,44.7,231.4,44.6z"
		/>
	<path class="st1" d="M249,42.1c-0.5-1.5-1.1-2.4-1.8-2.9c-0.5-0.4-1.1-0.4-1.7-0.2c-0.8,0.3-1.5,0.8-2.4,1.7
		c-0.8,0.9-1.5,1.9-2,3.1c-1.4,3.5-1.9,6.6-1.6,9.3c0.3,2.7,1.2,4.6,2.7,6c1.3,1.3,2.8,1.6,4.5,1c2.1-0.8,4-2.8,5.9-6.1
		c0.2-0.3,0.5-0.5,0.8-0.6c0.4-0.1,0.7-0.1,1,0.1c0.3,0.2,0.5,0.4,0.6,0.8c0.1,0.4,0.1,0.7-0.1,1.1c-2.2,3.9-4.7,6.4-7.4,7.4
		c-2.7,1-5.2,0.5-7.3-1.5c-1.9-1.8-3.1-4.4-3.5-7.7c-0.4-3.3,0.2-6.9,1.7-10.7c0.7-1.5,1.5-2.8,2.6-3.9c1.1-1.2,2.2-1.9,3.5-2.4
		c1.5-0.5,2.9-0.4,4.1,0.5c1.2,0.8,2.2,2.3,2.8,4.4c0.1,0.4,0.1,0.7-0.1,1c-0.2,0.3-0.4,0.5-0.8,0.6c-0.4,0.1-0.7,0.1-1.1-0.1
		C249.3,42.8,249.1,42.6,249,42.1z"/>
	<path class="st1" d="M273.6,39.7c-1.7-0.2-3.6,0.7-5.5,2.4c-1.9,1.7-3.5,4-4.9,6.9c-1.4,2.7-2.3,5.3-2.6,7.6
		c-0.3,2.1-0.1,3.4,0.6,3.9c0.5,0.4,1,0.6,1.5,0.5c0.5-0.1,1-0.4,1.6-1c1.2-1.2,2.4-3.2,3.6-6.1c0.7-1.7,1.7-4.2,2.9-7.6l1-2.8
		c0.2-0.4,0.4-0.7,0.5-1c0.3-0.5,0.6-0.8,0.9-0.9c0.7-0.3,1.2-0.2,1.7,0.3c0.1,0.2,0.2,0.3,0.2,0.5l0.2,0.5c0,0.2,0.1,0.5,0.1,0.8
		c0,0.7,0.1,1.5,0.2,2.4c0,1.6,0.1,2.8,0.1,3.4V50V50v0.1v0.1v0.1c0,0.5,0.1,1.4,0.2,2.8c0.2,3.4,0.4,6.4,0.8,8.9c0,0.4,0,0.7-0.3,1
		c-0.2,0.3-0.5,0.5-0.9,0.5c-0.4,0-0.7,0-1-0.3c-0.3-0.2-0.5-0.5-0.5-0.9c-0.4-2.6-0.6-5.6-0.8-9c-0.1-1.4-0.1-2.4-0.2-2.8v-0.2
		v-0.2v-0.2v-0.2v-0.2V49c-0.9,2.5-1.6,4.5-2.4,6c-1.4,3.3-2.8,5.6-4.3,7c-1,1-2,1.6-3,1.7c-1.3,0.2-2.5-0.1-3.6-0.9
		c-1.5-1.2-2.1-3.3-1.7-6.5c0.4-2.6,1.3-5.4,2.9-8.4c1.6-3.1,3.4-5.7,5.5-7.7c2.5-2.3,5.1-3.4,7.7-3.2c0.4,0.1,0.7,0.2,0.9,0.5
		c0.3,0.3,0.4,0.6,0.3,1c-0.1,0.4-0.2,0.7-0.5,0.9C274.3,39.7,274,39.8,273.6,39.7z"/>
</g>
</svg>
