<svg version="1.2" baseProfile="tiny" id="Camada_1"
	 xmlns="http://www.w3.org/2000/svg" xmlns:xlink="http://www.w3.org/1999/xlink" x="0px" y="0px" width="28" height="28"  viewBox="0 0 24 24"
	 overflow="visible" xml:space="preserve">
<path fill="#F7EF89" stroke="#3B3A39" stroke-width="0.5833" stroke-linecap="round" stroke-miterlimit="4.6667" d="M12.9,13
	c0.8,0,1.5,0.6,1.5,1.4l0,0.1v0.2c-0.7-0.3-1.5-0.2-2,0.4l-2.6,2.6C9.5,18,9.3,18.5,9.3,19c0,0.5,0.2,0.9,0.5,1.3l0.7,0.7
	c-0.9,0.2-1.9,0.3-2.8,0.3c-2.8,0-6.5-1-6.7-4.4l0-0.2v-2.1c0-0.8,0.6-1.5,1.4-1.5l0.1,0L12.9,13z"/>
<path fill="#F7EF89" stroke="#3B3A39" stroke-width="0.25" stroke-linecap="round" stroke-miterlimit="4.6667" d="M14.2,16.9
	L13,18.2h7.1l-1.3-1.3c-0.3-0.3-0.3-0.8,0-1.1c0.3-0.3,0.8-0.3,1.1,0l2.6,2.6c0.1,0.1,0.2,0.3,0.2,0.5c0,0.2-0.1,0.4-0.2,0.5
	l-2.6,2.6c-0.3,0.3-0.8,0.3-1.1,0c-0.3-0.3-0.3-0.8,0-1.1l1.3-1.3H13l1.3,1.3c0.3,0.3,0.3,0.8,0,1.1c-0.3,0.3-0.8,0.3-1.1,0
	l-2.6-2.6c-0.1-0.1-0.2-0.3-0.2-0.5c0-0.2,0.1-0.4,0.2-0.5l2.6-2.6c0.3-0.3,0.8-0.3,1.1,0C14.5,16.1,14.5,16.6,14.2,16.9z"/>
<path fill="#F7EF89" stroke="#3B3A39" stroke-width="0.25" stroke-linecap="round" stroke-miterlimit="4.6667" d="M20.6,15.1l1,1
	l0,0v-1.5l0-0.1c-0.1-0.8-0.7-1.4-1.5-1.4H15l0.1,0.2c0.3,0.4,0.4,0.9,0.4,1.4v2.1l0,0.3c0,0.1,0,0.2,0,0.2h2.3
	c-0.3-0.7-0.2-1.5,0.4-2C18.8,14.4,19.9,14.4,20.6,15.1z"/>
<path fill="#F7EF89" stroke="#3B3A39" stroke-width="0.25" stroke-miterlimit="4.6667" d="M7.8,1.7c2.6,0,4.6,2.1,4.6,4.6
	S10.3,11,7.8,11S3.1,8.9,3.1,6.3S5.2,1.7,7.8,1.7z"/>
<path fill="#F7EF89" stroke="#3B3A39" stroke-width="0.25" stroke-miterlimit="4.6667" d="M17,3.8c2,0,3.6,1.6,3.6,3.6S19,11,17,11
	s-3.6-1.6-3.6-3.6S15,3.8,17,3.8z"/>
<path fill="#F7EF89" d="M12.9,13c0.8,0,1.5,0.6,1.5,1.4l0,0.1v0.2c-0.7-0.3-1.5-0.2-2,0.4l-2.6,2.6C9.5,18,9.3,18.5,9.3,19
	c0,0.5,0.2,0.9,0.5,1.3l0.7,0.7c-0.9,0.2-1.9,0.3-2.8,0.3c-2.8,0-6.5-1-6.7-4.4l0-0.2v-2.1c0-0.8,0.6-1.5,1.4-1.5l0.1,0L12.9,13z"/>
</svg>
