<?xml version="1.0" encoding="utf-8"?>
<!-- Generator: Adobe Illustrator 25.2.3, SVG Export Plug-In . SVG Version: 6.00 Build 0)  -->
<svg version="1.1" id="Camada_1" xmlns="http://www.w3.org/2000/svg" xmlns:xlink="http://www.w3.org/1999/xlink" x="0px" y="0px"
	 viewBox="0 0 32 32" style="enable-background:new 0 0 32 32;" xml:space="preserve">
<style type="text/css">
	.st0{fill:#96EAC8;}
	.st1{fill:#124078;}
</style>
<circle class="st0" cx="17.3" cy="16.1" r="14.4"/>
<path class="st1" d="M5,4.2C5,3,6,2,7.2,2h8.5C17,2,18,3,18,4.2V12h3.5v3.2c0,1.8-1.5,3.2-3.2,3.2h-5.3c0.1-0.3,0.1-0.7,0.1-1
	c0-0.2,0-0.3,0-0.5h3.5V4.2c0-0.4-0.3-0.8-0.8-0.8H7.2c-0.4,0-0.8,0.3-0.8,0.8V11c-0.5,0-1,0.1-1.5,0.2V4.2z M18,17h0.2
	c1,0,1.8-0.8,1.8-1.8v-1.8h-2V17z M14.2,13.5h-2.6c-0.5-0.6-1-1.1-1.7-1.5h4.3c0.4,0,0.8,0.3,0.8,0.8S14.7,13.5,14.2,13.5z M8,5.7
	C8,5.3,8.3,5,8.8,5h5.5C14.7,5,15,5.3,15,5.7c0,0.4-0.3,0.8-0.8,0.8H8.8C8.3,6.5,8,6.2,8,5.7z M8,9.2c0-0.4,0.3-0.8,0.8-0.8h5.5
	c0.4,0,0.8,0.3,0.8,0.8c0,0.4-0.3,0.8-0.8,0.8H8.8C8.3,10,8,9.7,8,9.2z M12,17.5c0-3-2.5-5.5-5.5-5.5S1,14.5,1,17.5S3.5,23,6.5,23
	S12,20.5,12,17.5z M7,18l0,2.5C7,20.8,6.8,21,6.5,21C6.2,21,6,20.8,6,20.5L6,18H3.5C3.2,18,3,17.8,3,17.5C3,17.2,3.2,17,3.5,17H6
	l0-2.5C6,14.2,6.2,14,6.5,14S7,14.2,7,14.5L7,17h2.5c0.3,0,0.5,0.2,0.5,0.5c0,0.3-0.2,0.5-0.5,0.5H7z"/>
</svg>
