<?xml version="1.0" encoding="utf-8"?>
<!-- Generator: Adobe Illustrator 25.2.3, SVG Export Plug-In . SVG Version: 6.00 Build 0)  -->
<svg version="1.1" id="Camada_1" xmlns="http://www.w3.org/2000/svg" xmlns:xlink="http://www.w3.org/1999/xlink" x="0px" y="0px"
	 viewBox="0 0 32 32" style="enable-background:new 0 0 32 32;" xml:space="preserve">
<style type="text/css">
	.st0{fill:#96EAC8;}
	.st1{fill:#124078;}
</style>
<circle class="st0" cx="17.3" cy="16.1" r="14.4"/>
<path class="st1" d="M19.4,8.4l-5.8-5.8c0,0,0,0,0,0c0,0,0,0,0,0c-0.1-0.1-0.1-0.1-0.2-0.2c0,0-0.1,0-0.1,0c0,0,0,0,0,0
	c0,0,0,0-0.1,0c-0.1,0-0.1-0.1-0.2-0.1C12.7,2.1,12.5,2,12.3,2c0,0,0,0-0.1,0c0,0-0.1,0-0.1,0H6C4.9,2,4,2.9,4,4v16c0,1.1,0.9,2,2,2
	h6.8c-0.4-0.4-0.8-0.9-1.1-1.5H6c-0.3,0-0.5-0.2-0.5-0.5V4c0-0.3,0.2-0.5,0.5-0.5h6V8c0,1.1,0.9,2,2,2h4.5v1.1
	c0.5,0.1,1,0.2,1.5,0.4V9.8C20,9.3,19.8,8.8,19.4,8.4z M13.5,4.6l3.9,3.9H14c-0.3,0-0.5-0.2-0.5-0.5V4.6z M10.8,17.5H11
	c0,0.5,0.1,1,0.2,1.5h-0.4c-0.4,0-0.8-0.3-0.8-0.8S10.3,17.5,10.8,17.5z M11.2,16c0.1-0.5,0.3-1,0.6-1.5h-1c-0.4,0-0.8,0.3-0.8,0.8
	s0.3,0.8,0.8,0.8H11.2z M12.8,13c0.6-0.6,1.4-1.2,2.2-1.5h-4.2c-0.4,0-0.8,0.3-0.8,0.8s0.3,0.8,0.8,0.8H12.8z M7.8,11.5
	c-0.4,0-0.8,0.3-0.8,0.8S7.3,13,7.8,13c0.4,0,0.8-0.3,0.8-0.8S8.2,11.5,7.8,11.5z M7,15.2c0-0.4,0.3-0.8,0.8-0.8
	c0.4,0,0.8,0.3,0.8,0.8S8.2,16,7.8,16C7.3,16,7,15.7,7,15.2z M7,18.2c0-0.4,0.3-0.8,0.8-0.8c0.4,0,0.8,0.3,0.8,0.8S8.2,19,7.8,19
	C7.3,19,7,18.7,7,18.2z M23,17.5c0-3-2.5-5.5-5.5-5.5S12,14.5,12,17.5s2.5,5.5,5.5,5.5S23,20.5,23,17.5z M17.2,17.9
	c-0.1-0.1-0.2-0.2-0.2-0.4c0,0,0,0,0-0.1l0-3.9c0-0.3,0.2-0.5,0.5-0.5s0.5,0.2,0.5,0.5l0,3.5h2.5c0.3,0,0.5,0.2,0.5,0.5
	c0,0.3-0.2,0.5-0.5,0.5h-2.9c0,0,0,0-0.1,0C17.4,18,17.3,18,17.2,17.9z"/>
</svg>
