<?xml version="1.0" encoding="utf-8"?>
<!-- Generator: Adobe Illustrator 25.2.3, SVG Export Plug-In . SVG Version: 6.00 Build 0)  -->
<svg version="1.1" id="Camada_1" xmlns="http://www.w3.org/2000/svg" xmlns:xlink="http://www.w3.org/1999/xlink" x="0px" y="0px"
	 viewBox="0 0 32 32" style="enable-background:new 0 0 32 32;" xml:space="preserve">
<style type="text/css">
	.st0{fill:#96EAC8;}
	.st1{fill:#124078;}
</style>
<circle class="st0" cx="17.3" cy="16.1" r="14.4"/>
<path class="st1" d="M10.5,7c-1.7,0-3,1.3-3,3c0,1.7,1.3,3,3,3c1.7,0,3-1.3,3-3C13.5,8.3,12.2,7,10.5,7z M9,10
	c0-0.8,0.7-1.5,1.5-1.5c0.8,0,1.5,0.7,1.5,1.5c0,0.8-0.7,1.5-1.5,1.5C9.7,11.5,9,10.8,9,10z M2,6.2C2,5,3,4,4.2,4h12.5
	C18,4,19,5,19,6.2V11h-1.5V8.5h-0.8c-1.2,0-2.2-1-2.2-2.2V5.5h-8v0.8c0,1.2-1,2.2-2.2,2.2H3.5v3h0.8c1.2,0,2.2,1,2.2,2.2v0.8H14V16
	H4.2C3,16,2,15,2,13.8V6.2z M4.2,5.5c-0.4,0-0.8,0.3-0.8,0.8V7h0.8C4.7,7,5,6.7,5,6.2V5.5H4.2z M17.5,7V6.2c0-0.4-0.3-0.8-0.8-0.8
	H16v0.8C16,6.7,16.3,7,16.8,7H17.5z M3.5,13.8c0,0.4,0.3,0.8,0.8,0.8H5v-0.8C5,13.3,4.7,13,4.2,13H3.5V13.8z M4.4,17.5H14V19H7
	C5.9,19,4.9,18.4,4.4,17.5z M22,11V9c0-1.1-0.6-2.1-1.5-2.6V11H22z M16.5,12c-0.8,0-1.5,0.7-1.5,1.5v8c0,0.8,0.7,1.5,1.5,1.5h5
	c0.8,0,1.5-0.7,1.5-1.5v-8c0-0.8-0.7-1.5-1.5-1.5H16.5z M17,16.5h1c0.3,0,0.5,0.2,0.5,0.5s-0.2,0.5-0.5,0.5h-1
	c-0.3,0-0.5-0.2-0.5-0.5S16.7,16.5,17,16.5z M20,16.5h1c0.3,0,0.5,0.2,0.5,0.5s-0.2,0.5-0.5,0.5h-1c-0.3,0-0.5-0.2-0.5-0.5
	S19.7,16.5,20,16.5z M17,18.5h1c0.3,0,0.5,0.2,0.5,0.5s-0.2,0.5-0.5,0.5h-1c-0.3,0-0.5-0.2-0.5-0.5S16.7,18.5,17,18.5z M20,18.5h1
	c0.3,0,0.5,0.2,0.5,0.5s-0.2,0.5-0.5,0.5h-1c-0.3,0-0.5-0.2-0.5-0.5S19.7,18.5,20,18.5z M17,20.5h1c0.3,0,0.5,0.2,0.5,0.5
	s-0.2,0.5-0.5,0.5h-1c-0.3,0-0.5-0.2-0.5-0.5S16.7,20.5,17,20.5z M20,20.5h1c0.3,0,0.5,0.2,0.5,0.5s-0.2,0.5-0.5,0.5h-1
	c-0.3,0-0.5-0.2-0.5-0.5S19.7,20.5,20,20.5z M16.5,14c0-0.3,0.2-0.5,0.5-0.5h4c0.3,0,0.5,0.2,0.5,0.5v1c0,0.3-0.2,0.5-0.5,0.5h-4
	c-0.3,0-0.5-0.2-0.5-0.5V14z"/>
</svg>
