<?xml version="1.0" encoding="utf-8"?>
<!-- Generator: Adobe Illustrator 25.2.3, SVG Export Plug-In . SVG Version: 6.00 Build 0)  -->
<svg version="1.1" id="Camada_1" xmlns="http://www.w3.org/2000/svg" xmlns:xlink="http://www.w3.org/1999/xlink" x="0px" y="0px"
	 viewBox="0 0 32 32" style="enable-background:new 0 0 32 32;" xml:space="preserve">
<style type="text/css">
	.st0{fill:#96EAC8;}
	.st1{fill:#124078;}
</style>
<circle class="st0" cx="17.3" cy="16.1" r="14.4"/>
<path class="st1" d="M10.8,14c1.2,0,2.2,1,2.2,2.2v1.5l0,0.1C12.7,20,10.8,21,7.6,21c-3.2,0-5.1-1-5.6-3.1l0-0.1v-1.5
	C2,15,3,14,4.2,14H10.8z M10.8,15.5H4.2c-0.4,0-0.8,0.3-0.8,0.8v1.4c0.3,1.2,1.6,1.8,4.1,1.8c2.5,0,3.7-0.6,3.9-1.8v-1.4
	C11.5,15.8,11.2,15.5,10.8,15.5z M7.5,6C9.4,6,11,7.6,11,9.5S9.4,13,7.5,13S4,11.4,4,9.5S5.6,6,7.5,6z M19.8,2C21,2,22,3,22,4.2v3.5
	C22,9,21,10,19.8,10h-1.5l-2.2,2.1c-0.5,0.5-1.3,0.5-1.8,0c-0.2-0.2-0.4-0.5-0.4-0.9l0-1.3c-1.1-0.1-2-1.1-2-2.2V4.2
	C12,3,13,2,14.2,2H19.8z M7.5,7.5c-1.1,0-2,0.9-2,2c0,1.1,0.9,2,2,2s2-0.9,2-2C9.5,8.4,8.6,7.5,7.5,7.5z M19.8,3.5h-5.5
	c-0.4,0-0.8,0.3-0.8,0.8v3.5c0,0.4,0.3,0.8,0.8,0.8h1.2l0,2.2l2.2-2.2h2.1c0.4,0,0.8-0.3,0.8-0.8V4.2C20.5,3.8,20.2,3.5,19.8,3.5z"
	/>
</svg>
