<?xml version="1.0" encoding="utf-8"?>
<!-- Generator: Adobe Illustrator 25.2.3, SVG Export Plug-In . SVG Version: 6.00 Build 0)  -->
<svg version="1.1" id="Camada_1" xmlns="http://www.w3.org/2000/svg" xmlns:xlink="http://www.w3.org/1999/xlink" x="0px" y="0px"
	 viewBox="0 0 32 32" style="enable-background:new 0 0 32 32;" xml:space="preserve">
<style type="text/css">
	.st0{fill:#96EAC8;}
	.st1{fill:#124078;}
</style>
<circle class="st0" cx="17.3" cy="16.1" r="14.4"/>
<path class="st1" d="M18.5,20c0,0.3-0.2,0.5-0.5,0.5h-5.7c-0.3,0.6-0.7,1.1-1.1,1.5H18c1.1,0,2-0.9,2-2V9.8c0-0.5-0.2-1-0.6-1.4
	l-5.8-5.8c0,0,0,0,0,0c0,0,0,0,0,0c-0.1-0.1-0.1-0.1-0.2-0.2c0,0-0.1,0-0.1,0c0,0,0,0,0,0c0,0,0,0-0.1,0c-0.1,0-0.1-0.1-0.2-0.1
	C12.7,2.1,12.5,2,12.3,2c0,0,0,0-0.1,0c0,0-0.1,0-0.1,0H6C4.9,2,4,2.9,4,4v7.5c0.5-0.2,1-0.3,1.5-0.4V4c0-0.3,0.2-0.5,0.5-0.5h6V8
	c0,1.1,0.9,2,2,2h4.5V20z M13.5,4.6l3.9,3.9H14c-0.3,0-0.5-0.2-0.5-0.5V4.6z M12,17.5c0,3-2.5,5.5-5.5,5.5S1,20.5,1,17.5
	S3.5,12,6.5,12S12,14.5,12,17.5z M9.9,15.1c-0.2-0.2-0.5-0.2-0.7,0l-3.6,3.6l-1.6-1.6c-0.2-0.2-0.5-0.2-0.7,0
	c-0.2,0.2-0.2,0.5,0,0.7l2,2c0.2,0.2,0.5,0.2,0.7,0l4-4C10,15.7,10,15.3,9.9,15.1z"/>
</svg>
