<?xml version="1.0" encoding="utf-8"?>
<!-- Generator: Adobe Illustrator 25.2.3, SVG Export Plug-In . SVG Version: 6.00 Build 0)  -->
<svg version="1.1" id="Camada_1" xmlns="http://www.w3.org/2000/svg" xmlns:xlink="http://www.w3.org/1999/xlink" x="0px" y="0px"
	 viewBox="0 0 32 32" style="enable-background:new 0 0 32 32;" xml:space="preserve">
<style type="text/css">
	.st0{fill:#96EAC8;}
	.st1{fill:#124078;}
</style>
<circle class="st0" cx="17.3" cy="16.1" r="14.4"/>
<path class="st1" d="M11.3,15.5c0.2-0.5,0.4-1,0.7-1.5H6.2C5,14,4,15,4,16.2v0.6c0,0.9,0.3,1.8,0.9,2.4c1.4,1.7,3.5,2.6,6.2,2.7
	l0.5-1.5C9,20.4,7.2,19.7,6,18.3c-0.3-0.4-0.5-0.9-0.5-1.5v-0.6c0-0.4,0.3-0.7,0.7-0.7H11.3z M12,2c2.8,0,5,2.2,5,5c0,2.8-2.2,5-5,5
	c-2.8,0-5-2.2-5-5C7,4.2,9.2,2,12,2z M12,3.5c-1.9,0-3.5,1.6-3.5,3.5c0,1.9,1.6,3.5,3.5,3.5s3.5-1.6,3.5-3.5
	C15.5,5.1,13.9,3.5,12,3.5z M23,17.5c0,3-2.5,5.5-5.5,5.5c-1,0-1.9-0.2-2.7-0.7L12.6,23c-0.4,0.1-0.7-0.2-0.6-0.6l0.7-2.2
	c-0.4-0.8-0.7-1.7-0.7-2.7c0-3,2.5-5.5,5.5-5.5S23,14.5,23,17.5z M15.5,16c-0.3,0-0.5,0.2-0.5,0.5s0.2,0.5,0.5,0.5h4
	c0.3,0,0.5-0.2,0.5-0.5S19.8,16,19.5,16H15.5z M15,18.5c0,0.3,0.2,0.5,0.5,0.5h2c0.3,0,0.5-0.2,0.5-0.5c0-0.3-0.2-0.5-0.5-0.5h-2
	C15.2,18,15,18.2,15,18.5z"/>
</svg>
