<?xml version="1.0" encoding="utf-8"?>
<!-- Generator: Adobe Illustrator 25.2.3, SVG Export Plug-In . SVG Version: 6.00 Build 0)  -->
<svg version="1.1" id="Camada_1" xmlns="http://www.w3.org/2000/svg" xmlns:xlink="http://www.w3.org/1999/xlink" x="0px" y="0px"
	 viewBox="0 0 32 32" style="enable-background:new 0 0 32 32;" xml:space="preserve">
<style type="text/css">
	.st0{fill:#F7EF89;}
	.st1{fill:#124078;}
</style>
<circle class="st0" cx="17.3" cy="16.1" r="14.4"/>
<path class="st1" d="M11,8c0,0.4-0.3,0.7-0.7,0.7C9.5,8.7,9.5,8,9.5,8v0l0,0l0,0c0,0,0,0,0,0c0,0,0-0.1,0-0.1c0-0.1,0-0.2,0-0.3
	c0.1-0.2,0.2-0.5,0.4-0.8c0.5-0.6,1.3-1.1,2.6-1c0.9,0,1.8,0.4,2.3,1.1c0.5,0.7,0.7,1.6,0.4,2.5c-0.4,0.9-1.2,1.3-1.7,1.5l-0.1,0
	C13.2,10.9,13.1,11,13,11l0,0v0.7c0,0.4-0.3,0.8-0.7,0.8c-0.4,0-0.8-0.3-0.8-0.7V11c0-0.5,0.3-0.9,0.6-1.1c0.3-0.2,0.6-0.3,0.8-0.4
	l0,0c0.5-0.2,0.8-0.4,0.9-0.7c0.1-0.4,0.1-0.7-0.1-1c-0.2-0.3-0.6-0.5-1.2-0.5c-0.9,0-1.2,0.3-1.4,0.4C11.1,7.8,11,7.9,11,8
	C11,8,11,8,11,8L11,8z"/>
<path class="st1" d="M12.2,15.5c0.6,0,1-0.4,1-1s-0.4-1-1-1s-1,0.4-1,1S11.7,15.5,12.2,15.5z"/>
<path class="st1" d="M4,4.5C4,3.1,5.1,2,6.5,2H18c1.4,0,2.5,1.1,2.5,2.5v14.2c0,0.4-0.3,0.8-0.8,0.8H5.5c0,0.6,0.4,1,1,1h13.2
	c0.4,0,0.8,0.3,0.8,0.8S20.2,22,19.8,22H6.5C5.1,22,4,20.9,4,19.5V4.5z M5.5,4.5V18H19V4.5c0-0.6-0.4-1-1-1H6.5
	C5.9,3.5,5.5,3.9,5.5,4.5z"/>
</svg>
