<?xml version="1.0" encoding="utf-8"?>
<!-- Generator: Adobe Illustrator 25.2.3, SVG Export Plug-In . SVG Version: 6.00 Build 0)  -->
<svg version="1.1" id="Camada_1" xmlns="http://www.w3.org/2000/svg" xmlns:xlink="http://www.w3.org/1999/xlink" x="0px" y="0px"
	 viewBox="0 0 32 32" style="enable-background:new 0 0 32 32;" xml:space="preserve">
<style type="text/css">
	.st0{fill:#F7EF89;}
	.st1{fill:#124078;}
</style>
<circle class="st0" cx="17.3" cy="16.1" r="14.4"/>
<path class="st1" d="M16.3,5.2C16,5.5,16.1,6,16.4,6.2c1.8,1.4,2.9,3.5,2.9,5.8c0,3.7-2.8,6.8-6.5,7.2l0.7-0.7
	c0.3-0.3,0.3-0.8,0-1.1c-0.3-0.3-0.7-0.3-1-0.1l-0.1,0.1l-2,2c-0.3,0.3-0.3,0.7-0.1,1l0.1,0.1l2,2c0.3,0.3,0.8,0.3,1.1,0
	c0.3-0.3,0.3-0.7,0.1-1l-0.1-0.1l-0.8-0.7c4.5-0.4,8-4.1,8-8.7c0-2.8-1.3-5.3-3.4-7C17,4.8,16.5,4.9,16.3,5.2z M10.5,1.5
	c-0.3,0.3-0.3,0.8,0,1.1l0.7,0.7c-4.5,0.4-8,4.1-8,8.7c0,2.6,1.2,5.1,3.2,6.7C6.8,19,7.2,19,7.5,18.6c0.3-0.3,0.2-0.8-0.1-1.1
	c-1.7-1.4-2.6-3.4-2.6-5.6c0-3.7,2.8-6.8,6.5-7.2l-0.7,0.7c-0.3,0.3-0.3,0.8,0,1.1c0.3,0.3,0.8,0.3,1.1,0l2-2c0.3-0.3,0.3-0.8,0-1.1
	l-2-2C11.3,1.2,10.8,1.2,10.5,1.5z"/>
</svg>
