<?xml version="1.0" encoding="utf-8"?>
<!-- Generator: Adobe Illustrator 25.2.3, SVG Export Plug-In . SVG Version: 6.00 Build 0)  -->
<svg version="1.1" id="Camada_1" xmlns="http://www.w3.org/2000/svg" xmlns:xlink="http://www.w3.org/1999/xlink" x="0px" y="0px"
	 viewBox="0 0 32 32" style="enable-background:new 0 0 32 32;" xml:space="preserve">
<style type="text/css">
	.st0{fill:#F7EF89;}
	.st1{fill:#124078;}
</style>
<circle class="st0" cx="17.3" cy="16.1" r="14.4"/>
<path class="st1" d="M6,4.2c0.3,0.3,0.3,0.7,0.1,1.1L5.4,6h2.9C8.7,6,9,6.3,9,6.7S8.7,7.5,8.3,7.5H5.4l0.7,0.8C6.3,8.6,6.3,9,6,9.3
	C5.7,9.6,5.2,9.6,4.9,9.2l-1.7-2c-0.2-0.3-0.2-0.7,0-1l1.7-2C5.2,3.9,5.7,3.9,6,4.2z M18,5.2c-0.3-0.3-0.2-0.8,0.1-1.1
	c0.3-0.3,0.8-0.2,1.1,0.1l1.8,2c0.2,0.3,0.2,0.7,0,1l-1.8,2c-0.3,0.3-0.7,0.3-1.1,0.1C17.7,9,17.7,8.6,18,8.3l0.7-0.8h-2.9
	c-0.4,0-0.8-0.3-0.8-0.8S15.3,6,15.8,6h2.9L18,5.2z M6,15.8C6,15.3,6.3,15,6.8,15h10.5c0.4,0,0.8,0.3,0.8,0.8s-0.3,0.8-0.8,0.8H6.8
	C6.3,16.5,6,16.2,6,15.8z M5.8,11C4.2,11,3,12.2,3,13.8v4c0,1.5,1.2,2.8,2.8,2.8h12.5c1.5,0,2.8-1.2,2.8-2.8v-4
	c0-1.5-1.2-2.8-2.8-2.8H5.8z M4.5,13.8c0-0.7,0.6-1.2,1.2-1.2h12.5c0.7,0,1.2,0.6,1.2,1.2v4c0,0.7-0.6,1.2-1.2,1.2H5.8
	c-0.7,0-1.2-0.6-1.2-1.2V13.8z"/>
</svg>
