<?xml version="1.0" encoding="utf-8"?>
<!-- Generator: Adobe Illustrator 25.2.3, SVG Export Plug-In . SVG Version: 6.00 Build 0)  -->
<svg version="1.1" id="Camada_1" xmlns="http://www.w3.org/2000/svg" xmlns:xlink="http://www.w3.org/1999/xlink" x="0px" y="0px"
	 viewBox="0 0 32 32" style="enable-background:new 0 0 32 32;" xml:space="preserve">
<style type="text/css">
	.st0{fill:#F7EF89;}
	.st1{fill:#124078;}
</style>
<circle class="st0" cx="17.3" cy="16.1" r="14.4"/>
<path class="st1" d="M13.2,12c1.3,0,2.4,1.1,2.4,2.4H15c-0.2,0-0.4,0-0.6,0.1v-0.1c0-0.7-0.5-1.2-1.2-1.2H4.8
	c-0.7,0-1.2,0.5-1.2,1.2v1.8c0,1.7,1.9,3,5.4,3c1.9,0,3.3-0.4,4.2-1v1.4c-1.1,0.5-2.5,0.8-4.2,0.8c-4.1,0-6.6-1.7-6.6-4.2v-1.8
	c0-1.3,1.1-2.4,2.4-2.4H13.2z M21,14.4c0.2,0,0.4,0,0.6,0.1v-0.1c0-1.3-1.1-2.4-2.4-2.4l-3.3,0c0.3,0.3,0.6,0.8,0.7,1.2l2.6,0
	c0.7,0,1.2,0.5,1.2,1.2H21z M9,2.4c2.3,0,4.2,1.9,4.2,4.2s-1.9,4.2-4.2,4.2S4.8,8.9,4.8,6.6S6.7,2.4,9,2.4z M9,3.6c-1.7,0-3,1.3-3,3
	s1.3,3,3,3s3-1.3,3-3S10.7,3.6,9,3.6z M17.4,4.8c1.7,0,3,1.3,3,3s-1.3,3-3,3c-1.7,0-3-1.3-3-3S15.7,4.8,17.4,4.8z M17.4,6
	c-1,0-1.8,0.8-1.8,1.8s0.8,1.8,1.8,1.8s1.8-0.8,1.8-1.8S18.4,6,17.4,6z M15,15.6c-0.3,0-0.6,0.3-0.6,0.6c0,0.3,0.3,0.6,0.6,0.6h6
	c0.3,0,0.6-0.3,0.6-0.6c0-0.3-0.3-0.6-0.6-0.6H15z M15,18c-0.3,0-0.6,0.3-0.6,0.6s0.3,0.6,0.6,0.6h6c0.3,0,0.6-0.3,0.6-0.6
	S21.3,18,21,18H15z M15,20.4c-0.3,0-0.6,0.3-0.6,0.6c0,0.3,0.3,0.6,0.6,0.6h6c0.3,0,0.6-0.3,0.6-0.6c0-0.3-0.3-0.6-0.6-0.6H15z"/>
</svg>
