<?xml version="1.0" encoding="utf-8"?>
<!-- Generator: Adobe Illustrator 25.2.3, SVG Export Plug-In . SVG Version: 6.00 Build 0)  -->
<svg version="1.1" id="Camada_1" xmlns="http://www.w3.org/2000/svg" xmlns:xlink="http://www.w3.org/1999/xlink" x="0px" y="0px"
	 viewBox="0 0 32 32" style="enable-background:new 0 0 32 32;" xml:space="preserve">
<style type="text/css">
	.st0{fill:#F7EF89;}
	.st1{fill:#124078;}
</style>
<circle class="st0" cx="17.3" cy="16.1" r="14.4"/>
<path class="st1" d="M16.5,9C17.3,9,18,8.3,18,7.5C18,6.7,17.3,6,16.5,6S15,6.7,15,7.5C15,8.3,15.7,9,16.5,9z M11.2,18v-0.8h1.5
	c0.4,0,0.8-0.3,0.8-0.8V15H15c3.3,0,6-2.7,6-6c0-3.3-2.7-6-6-6S9,5.7,9,9c0,0.6,0.1,1.2,0.2,1.7l-5.8,5.8C3.2,16.8,3,17.2,3,17.6
	v1.9C3,20.3,3.7,21,4.5,21h3C8.3,21,9,20.3,9,19.5v-0.8h1.5C10.9,18.8,11.2,18.4,11.2,18z M10.5,9c0-2.5,2-4.5,4.5-4.5
	s4.5,2,4.5,4.5c0,2.5-2,4.5-4.5,4.5h-2.2c-0.4,0-0.8,0.3-0.8,0.8v1.5h-1.5c-0.4,0-0.8,0.3-0.8,0.8v0.8H8.2c-0.4,0-0.8,0.3-0.8,0.8
	v1.5h-3v-1.9l6.1-6.1c0.2-0.2,0.3-0.5,0.2-0.8C10.6,10.1,10.5,9.6,10.5,9z"/>
</svg>
