<?xml version="1.0" encoding="utf-8"?>
<!-- Generator: Adobe Illustrator 25.2.3, SVG Export Plug-In . SVG Version: 6.00 Build 0)  -->
<svg version="1.1" id="Camada_1" xmlns="http://www.w3.org/2000/svg" xmlns:xlink="http://www.w3.org/1999/xlink" x="0px" y="0px"
	 viewBox="0 0 32 32" style="enable-background:new 0 0 32 32;" xml:space="preserve">
<style type="text/css">
	.st0{fill:#F7EF89;}
	.st1{fill:#124078;}
</style>
<circle class="st0" cx="17.3" cy="16.1" r="14.4"/>
<path class="st1" d="M11.7,7.5C11.6,7.2,11.3,7,11,7c-0.3,0-0.6,0.2-0.7,0.4l-1.5,3.1h-1c-0.4,0-0.8,0.3-0.8,0.8S7.3,12,7.8,12h1.5
	c0.3,0,0.5-0.2,0.7-0.4l1-2l2.1,5c0.1,0.3,0.4,0.4,0.6,0.5c0.3,0,0.6-0.1,0.7-0.4l1.5-2.6h0.8c0.4,0,0.8-0.3,0.8-0.8
	s-0.3-0.8-0.8-0.8h-1.2c-0.3,0-0.5,0.1-0.6,0.4l-1,1.7L11.7,7.5z"/>
<path class="st1" d="M6.5,2C5.1,2,4,3.1,4,4.5v15C4,20.9,5.1,22,6.5,22h13.2c0.4,0,0.8-0.3,0.8-0.8s-0.3-0.8-0.8-0.8H6.5
	c-0.6,0-1-0.4-1-1h14.2c0.4,0,0.8-0.3,0.8-0.8V4.5C20.5,3.1,19.4,2,18,2H6.5z M19,18H5.5V4.5c0-0.6,0.4-1,1-1H18c0.6,0,1,0.4,1,1V18
	z"/>
</svg>
