<?xml version="1.0" encoding="utf-8"?>
<!-- Generator: Adobe Illustrator 25.2.3, SVG Export Plug-In . SVG Version: 6.00 Build 0)  -->
<svg version="1.1" id="Camada_1" xmlns="http://www.w3.org/2000/svg" xmlns:xlink="http://www.w3.org/1999/xlink" x="0px" y="0px"
	 viewBox="0 0 32 32" style="enable-background:new 0 0 32 32;" xml:space="preserve">
<style type="text/css">
	.st0{fill:#F7EF89;}
	.st1{fill:#124078;}
</style>
<circle class="st0" cx="17.3" cy="16.1" r="14.4"/>
<path class="st1" d="M18.8,2.2c-0.3-0.3-0.8-0.3-1.1,0c-0.3,0.3-0.3,0.8,0,1.1L19.4,5h-6.2c-1.5,0-2.8,1.2-2.8,2.7l0,9.5
	c0,0.7-0.6,1.2-1.2,1.2H8C7.7,17.1,6.5,16,5,16c-1.7,0-3,1.3-3,3c0,1.7,1.3,3,3,3c1.3,0,2.4-0.8,2.8-2h1.4c1.5,0,2.7-1.2,2.7-2.7
	l0-9.5c0-0.7,0.6-1.2,1.2-1.2h6.2l-1.7,1.7c-0.3,0.3-0.3,0.8,0,1.1c0.3,0.3,0.8,0.3,1.1,0l3-3c0.3-0.3,0.3-0.8,0-1.1L18.8,2.2z
	 M3.5,19c0-0.8,0.7-1.5,1.5-1.5c0.8,0,1.5,0.7,1.5,1.5c0,0.8-0.7,1.5-1.5,1.5C4.2,20.5,3.5,19.8,3.5,19z"/>
</svg>
