<svg xmlns="http://www.w3.org/2000/svg" viewBox="0 0 186.97 186.97">

	<defs>

<style>

path { fill: #DCDCDC; }

@media (inverted-colors) {
  path { filter: invert(100%);  }
}


.cls-1 {
    animation: colorChange1 1s;
}


.cls-2 {
    animation: colorChange2 3s;
}

.cls-3 {
    animation: colorChange3 1s;
}

.cls-4 {
    animation: colorChange4 2s;
    -webkit-animation: colorChange4 2s;
}


@media (prefers-color-scheme: dark) {
  path { fill: #F8F8F8; }
}


@media (prefers-color-scheme: light) {
  path { fill: #0066FF; }
}


@keyframes colorChange1 {
    50%{fill: #f8f8f8;  transform: skew(5deg, 1deg);}
}

@keyframes colorChange2 {
    50%{fill: #009966;  transform: skew(-5deg, -1deg) ;}
}


@keyframes colorChange3 {
    50%{fill: #0066FF; transform: skew(5deg, 1deg);}
}

@keyframes colorChange4 {
    50%{fill: #FFCC00; transform: skew(-5deg, -1deg);}
}


</style>
</defs>

<g id="Camada_2" data-name="Camada 2">
	<g id="Camada_1-2" data-name="Camada 1">
		<path class="cls-1" d="M76.35,92.77c-41-2-66.63,18-66.63,18V51A37.44,37.44,0,0,1,36.33,15.08a137.51,137.51,0,0,1,40-5.44Z"/>
		<path class="cls-2" d="M94.31,76.26c2.06-41-18-66.62-18-66.62h62.84a33.21,33.21,0,0,1,31.42,22.13c3.73,10.72,6.93,25.45,6.89,44.49Z"/>
		<path class="cls-3" d="M110.83,94.27c41,2.06,66.62-18,66.62-18v56.5a41.88,41.88,0,0,1-31.71,40.61,142,142,0,0,1-34.91,4Z"/>
		<path class="cls-4" d="M92.86,110.78c-2.06,41,18,66.63,18,66.63H51.69a38.4,38.4,0,0,1-36.88-27.83,138.58,138.58,0,0,1-5.09-38.79Z"/>

	</g>
</g>
</svg>